%TF.GenerationSoftware,KiCad,Pcbnew,9.0.7*%
%TF.CreationDate,2026-03-13T13:39:15-04:00*%
%TF.ProjectId,Mechaduino-Hardware-KiCad,4d656368-6164-4756-996e-6f2d48617264,rev?*%
%TF.SameCoordinates,Original*%
%TF.FileFunction,Legend,Bot*%
%TF.FilePolarity,Positive*%
%FSLAX46Y46*%
G04 Gerber Fmt 4.6, Leading zero omitted, Abs format (unit mm)*
G04 Created by KiCad (PCBNEW 9.0.7) date 2026-03-13 13:39:15*
%MOMM*%
%LPD*%
G01*
G04 APERTURE LIST*
G04 Aperture macros list*
%AMRoundRect*
0 Rectangle with rounded corners*
0 $1 Rounding radius*
0 $2 $3 $4 $5 $6 $7 $8 $9 X,Y pos of 4 corners*
0 Add a 4 corners polygon primitive as box body*
4,1,4,$2,$3,$4,$5,$6,$7,$8,$9,$2,$3,0*
0 Add four circle primitives for the rounded corners*
1,1,$1+$1,$2,$3*
1,1,$1+$1,$4,$5*
1,1,$1+$1,$6,$7*
1,1,$1+$1,$8,$9*
0 Add four rect primitives between the rounded corners*
20,1,$1+$1,$2,$3,$4,$5,0*
20,1,$1+$1,$4,$5,$6,$7,0*
20,1,$1+$1,$6,$7,$8,$9,0*
20,1,$1+$1,$8,$9,$2,$3,0*%
G04 Aperture macros list end*
%ADD10C,0.300000*%
%ADD11C,0.150000*%
%ADD12C,0.120000*%
%ADD13C,0.010000*%
%ADD14C,0.000000*%
%ADD15C,3.700000*%
%ADD16C,1.700000*%
%ADD17O,1.700000X1.700000*%
%ADD18R,2.600000X2.600000*%
%ADD19C,2.600000*%
%ADD20O,1.900000X1.000000*%
%ADD21O,1.250000X1.050000*%
%ADD22RoundRect,0.100000X-0.100000X0.637500X-0.100000X-0.637500X0.100000X-0.637500X0.100000X0.637500X0*%
%ADD23RoundRect,0.250000X0.337500X0.475000X-0.337500X0.475000X-0.337500X-0.475000X0.337500X-0.475000X0*%
%ADD24C,1.000000*%
%ADD25O,1.000000X1.000000*%
G04 APERTURE END LIST*
D10*
X11572257Y-83940225D02*
X11500828Y-83797368D01*
X11500828Y-83797368D02*
X11500828Y-83583082D01*
X11500828Y-83583082D02*
X11572257Y-83368796D01*
X11572257Y-83368796D02*
X11715114Y-83225939D01*
X11715114Y-83225939D02*
X11857971Y-83154510D01*
X11857971Y-83154510D02*
X12143685Y-83083082D01*
X12143685Y-83083082D02*
X12357971Y-83083082D01*
X12357971Y-83083082D02*
X12643685Y-83154510D01*
X12643685Y-83154510D02*
X12786542Y-83225939D01*
X12786542Y-83225939D02*
X12929400Y-83368796D01*
X12929400Y-83368796D02*
X13000828Y-83583082D01*
X13000828Y-83583082D02*
X13000828Y-83725939D01*
X13000828Y-83725939D02*
X12929400Y-83940225D01*
X12929400Y-83940225D02*
X12857971Y-84011653D01*
X12857971Y-84011653D02*
X12357971Y-84011653D01*
X12357971Y-84011653D02*
X12357971Y-83725939D01*
X13000828Y-84654510D02*
X11500828Y-84654510D01*
X11500828Y-84654510D02*
X13000828Y-85511653D01*
X13000828Y-85511653D02*
X11500828Y-85511653D01*
X13000828Y-86225939D02*
X11500828Y-86225939D01*
X11500828Y-86225939D02*
X11500828Y-86583082D01*
X11500828Y-86583082D02*
X11572257Y-86797368D01*
X11572257Y-86797368D02*
X11715114Y-86940225D01*
X11715114Y-86940225D02*
X11857971Y-87011654D01*
X11857971Y-87011654D02*
X12143685Y-87083082D01*
X12143685Y-87083082D02*
X12357971Y-87083082D01*
X12357971Y-87083082D02*
X12643685Y-87011654D01*
X12643685Y-87011654D02*
X12786542Y-86940225D01*
X12786542Y-86940225D02*
X12929400Y-86797368D01*
X12929400Y-86797368D02*
X13000828Y-86583082D01*
X13000828Y-86583082D02*
X13000828Y-86225939D01*
D11*
X37810839Y-87322200D02*
X37667982Y-87369819D01*
X37667982Y-87369819D02*
X37429887Y-87369819D01*
X37429887Y-87369819D02*
X37334649Y-87322200D01*
X37334649Y-87322200D02*
X37287030Y-87274580D01*
X37287030Y-87274580D02*
X37239411Y-87179342D01*
X37239411Y-87179342D02*
X37239411Y-87084104D01*
X37239411Y-87084104D02*
X37287030Y-86988866D01*
X37287030Y-86988866D02*
X37334649Y-86941247D01*
X37334649Y-86941247D02*
X37429887Y-86893628D01*
X37429887Y-86893628D02*
X37620363Y-86846009D01*
X37620363Y-86846009D02*
X37715601Y-86798390D01*
X37715601Y-86798390D02*
X37763220Y-86750771D01*
X37763220Y-86750771D02*
X37810839Y-86655533D01*
X37810839Y-86655533D02*
X37810839Y-86560295D01*
X37810839Y-86560295D02*
X37763220Y-86465057D01*
X37763220Y-86465057D02*
X37715601Y-86417438D01*
X37715601Y-86417438D02*
X37620363Y-86369819D01*
X37620363Y-86369819D02*
X37382268Y-86369819D01*
X37382268Y-86369819D02*
X37239411Y-86417438D01*
X36858458Y-87322200D02*
X36715601Y-87369819D01*
X36715601Y-87369819D02*
X36477506Y-87369819D01*
X36477506Y-87369819D02*
X36382268Y-87322200D01*
X36382268Y-87322200D02*
X36334649Y-87274580D01*
X36334649Y-87274580D02*
X36287030Y-87179342D01*
X36287030Y-87179342D02*
X36287030Y-87084104D01*
X36287030Y-87084104D02*
X36334649Y-86988866D01*
X36334649Y-86988866D02*
X36382268Y-86941247D01*
X36382268Y-86941247D02*
X36477506Y-86893628D01*
X36477506Y-86893628D02*
X36667982Y-86846009D01*
X36667982Y-86846009D02*
X36763220Y-86798390D01*
X36763220Y-86798390D02*
X36810839Y-86750771D01*
X36810839Y-86750771D02*
X36858458Y-86655533D01*
X36858458Y-86655533D02*
X36858458Y-86560295D01*
X36858458Y-86560295D02*
X36810839Y-86465057D01*
X36810839Y-86465057D02*
X36763220Y-86417438D01*
X36763220Y-86417438D02*
X36667982Y-86369819D01*
X36667982Y-86369819D02*
X36429887Y-86369819D01*
X36429887Y-86369819D02*
X36287030Y-86417438D01*
D10*
X14100828Y-83968796D02*
X14100828Y-83254510D01*
X14100828Y-83254510D02*
X14815114Y-83183082D01*
X14815114Y-83183082D02*
X14743685Y-83254510D01*
X14743685Y-83254510D02*
X14672257Y-83397368D01*
X14672257Y-83397368D02*
X14672257Y-83754510D01*
X14672257Y-83754510D02*
X14743685Y-83897368D01*
X14743685Y-83897368D02*
X14815114Y-83968796D01*
X14815114Y-83968796D02*
X14957971Y-84040225D01*
X14957971Y-84040225D02*
X15315114Y-84040225D01*
X15315114Y-84040225D02*
X15457971Y-83968796D01*
X15457971Y-83968796D02*
X15529400Y-83897368D01*
X15529400Y-83897368D02*
X15600828Y-83754510D01*
X15600828Y-83754510D02*
X15600828Y-83397368D01*
X15600828Y-83397368D02*
X15529400Y-83254510D01*
X15529400Y-83254510D02*
X15457971Y-83183082D01*
X14100828Y-84468796D02*
X15600828Y-84968796D01*
X15600828Y-84968796D02*
X14100828Y-85468796D01*
D11*
X39463220Y-84769819D02*
X39463220Y-83769819D01*
X39463220Y-83769819D02*
X39129887Y-84484104D01*
X39129887Y-84484104D02*
X38796554Y-83769819D01*
X38796554Y-83769819D02*
X38796554Y-84769819D01*
X38320363Y-84769819D02*
X38320363Y-83769819D01*
X37891792Y-84722200D02*
X37748935Y-84769819D01*
X37748935Y-84769819D02*
X37510840Y-84769819D01*
X37510840Y-84769819D02*
X37415602Y-84722200D01*
X37415602Y-84722200D02*
X37367983Y-84674580D01*
X37367983Y-84674580D02*
X37320364Y-84579342D01*
X37320364Y-84579342D02*
X37320364Y-84484104D01*
X37320364Y-84484104D02*
X37367983Y-84388866D01*
X37367983Y-84388866D02*
X37415602Y-84341247D01*
X37415602Y-84341247D02*
X37510840Y-84293628D01*
X37510840Y-84293628D02*
X37701316Y-84246009D01*
X37701316Y-84246009D02*
X37796554Y-84198390D01*
X37796554Y-84198390D02*
X37844173Y-84150771D01*
X37844173Y-84150771D02*
X37891792Y-84055533D01*
X37891792Y-84055533D02*
X37891792Y-83960295D01*
X37891792Y-83960295D02*
X37844173Y-83865057D01*
X37844173Y-83865057D02*
X37796554Y-83817438D01*
X37796554Y-83817438D02*
X37701316Y-83769819D01*
X37701316Y-83769819D02*
X37463221Y-83769819D01*
X37463221Y-83769819D02*
X37320364Y-83817438D01*
X36701316Y-83769819D02*
X36510840Y-83769819D01*
X36510840Y-83769819D02*
X36415602Y-83817438D01*
X36415602Y-83817438D02*
X36320364Y-83912676D01*
X36320364Y-83912676D02*
X36272745Y-84103152D01*
X36272745Y-84103152D02*
X36272745Y-84436485D01*
X36272745Y-84436485D02*
X36320364Y-84626961D01*
X36320364Y-84626961D02*
X36415602Y-84722200D01*
X36415602Y-84722200D02*
X36510840Y-84769819D01*
X36510840Y-84769819D02*
X36701316Y-84769819D01*
X36701316Y-84769819D02*
X36796554Y-84722200D01*
X36796554Y-84722200D02*
X36891792Y-84626961D01*
X36891792Y-84626961D02*
X36939411Y-84436485D01*
X36939411Y-84436485D02*
X36939411Y-84103152D01*
X36939411Y-84103152D02*
X36891792Y-83912676D01*
X36891792Y-83912676D02*
X36796554Y-83817438D01*
X36796554Y-83817438D02*
X36701316Y-83769819D01*
X13863220Y-93669819D02*
X13863220Y-92669819D01*
X13863220Y-92669819D02*
X13529887Y-93384104D01*
X13529887Y-93384104D02*
X13196554Y-92669819D01*
X13196554Y-92669819D02*
X13196554Y-93669819D01*
X12720363Y-93288866D02*
X11958459Y-93288866D01*
X12339411Y-93669819D02*
X12339411Y-92907914D01*
D10*
X16500828Y-83111653D02*
X16500828Y-84040225D01*
X16500828Y-84040225D02*
X17072257Y-83540225D01*
X17072257Y-83540225D02*
X17072257Y-83754510D01*
X17072257Y-83754510D02*
X17143685Y-83897368D01*
X17143685Y-83897368D02*
X17215114Y-83968796D01*
X17215114Y-83968796D02*
X17357971Y-84040225D01*
X17357971Y-84040225D02*
X17715114Y-84040225D01*
X17715114Y-84040225D02*
X17857971Y-83968796D01*
X17857971Y-83968796D02*
X17929400Y-83897368D01*
X17929400Y-83897368D02*
X18000828Y-83754510D01*
X18000828Y-83754510D02*
X18000828Y-83325939D01*
X18000828Y-83325939D02*
X17929400Y-83183082D01*
X17929400Y-83183082D02*
X17857971Y-83111653D01*
X16500828Y-84468796D02*
X18000828Y-84968796D01*
X18000828Y-84968796D02*
X16500828Y-85468796D01*
X16500828Y-85825938D02*
X16500828Y-86754510D01*
X16500828Y-86754510D02*
X17072257Y-86254510D01*
X17072257Y-86254510D02*
X17072257Y-86468795D01*
X17072257Y-86468795D02*
X17143685Y-86611653D01*
X17143685Y-86611653D02*
X17215114Y-86683081D01*
X17215114Y-86683081D02*
X17357971Y-86754510D01*
X17357971Y-86754510D02*
X17715114Y-86754510D01*
X17715114Y-86754510D02*
X17857971Y-86683081D01*
X17857971Y-86683081D02*
X17929400Y-86611653D01*
X17929400Y-86611653D02*
X18000828Y-86468795D01*
X18000828Y-86468795D02*
X18000828Y-86040224D01*
X18000828Y-86040224D02*
X17929400Y-85897367D01*
X17929400Y-85897367D02*
X17857971Y-85825938D01*
D11*
X41003152Y-86048271D02*
X41669819Y-86286366D01*
X41669819Y-86286366D02*
X41003152Y-86524461D01*
X41669819Y-87429223D02*
X41669819Y-86857795D01*
X41669819Y-87143509D02*
X40669819Y-87143509D01*
X40669819Y-87143509D02*
X40812676Y-87048271D01*
X40812676Y-87048271D02*
X40907914Y-86953033D01*
X40907914Y-86953033D02*
X40955533Y-86857795D01*
X41574580Y-87857795D02*
X41622200Y-87905414D01*
X41622200Y-87905414D02*
X41669819Y-87857795D01*
X41669819Y-87857795D02*
X41622200Y-87810176D01*
X41622200Y-87810176D02*
X41574580Y-87857795D01*
X41574580Y-87857795D02*
X41669819Y-87857795D01*
X40765057Y-88286366D02*
X40717438Y-88333985D01*
X40717438Y-88333985D02*
X40669819Y-88429223D01*
X40669819Y-88429223D02*
X40669819Y-88667318D01*
X40669819Y-88667318D02*
X40717438Y-88762556D01*
X40717438Y-88762556D02*
X40765057Y-88810175D01*
X40765057Y-88810175D02*
X40860295Y-88857794D01*
X40860295Y-88857794D02*
X40955533Y-88857794D01*
X40955533Y-88857794D02*
X41098390Y-88810175D01*
X41098390Y-88810175D02*
X41669819Y-88238747D01*
X41669819Y-88238747D02*
X41669819Y-88857794D01*
X40765057Y-90000652D02*
X40717438Y-90048271D01*
X40717438Y-90048271D02*
X40669819Y-90143509D01*
X40669819Y-90143509D02*
X40669819Y-90381604D01*
X40669819Y-90381604D02*
X40717438Y-90476842D01*
X40717438Y-90476842D02*
X40765057Y-90524461D01*
X40765057Y-90524461D02*
X40860295Y-90572080D01*
X40860295Y-90572080D02*
X40955533Y-90572080D01*
X40955533Y-90572080D02*
X41098390Y-90524461D01*
X41098390Y-90524461D02*
X41669819Y-89953033D01*
X41669819Y-89953033D02*
X41669819Y-90572080D01*
X40669819Y-91191128D02*
X40669819Y-91286366D01*
X40669819Y-91286366D02*
X40717438Y-91381604D01*
X40717438Y-91381604D02*
X40765057Y-91429223D01*
X40765057Y-91429223D02*
X40860295Y-91476842D01*
X40860295Y-91476842D02*
X41050771Y-91524461D01*
X41050771Y-91524461D02*
X41288866Y-91524461D01*
X41288866Y-91524461D02*
X41479342Y-91476842D01*
X41479342Y-91476842D02*
X41574580Y-91429223D01*
X41574580Y-91429223D02*
X41622200Y-91381604D01*
X41622200Y-91381604D02*
X41669819Y-91286366D01*
X41669819Y-91286366D02*
X41669819Y-91191128D01*
X41669819Y-91191128D02*
X41622200Y-91095890D01*
X41622200Y-91095890D02*
X41574580Y-91048271D01*
X41574580Y-91048271D02*
X41479342Y-91000652D01*
X41479342Y-91000652D02*
X41288866Y-90953033D01*
X41288866Y-90953033D02*
X41050771Y-90953033D01*
X41050771Y-90953033D02*
X40860295Y-91000652D01*
X40860295Y-91000652D02*
X40765057Y-91048271D01*
X40765057Y-91048271D02*
X40717438Y-91095890D01*
X40717438Y-91095890D02*
X40669819Y-91191128D01*
X40765057Y-91905414D02*
X40717438Y-91953033D01*
X40717438Y-91953033D02*
X40669819Y-92048271D01*
X40669819Y-92048271D02*
X40669819Y-92286366D01*
X40669819Y-92286366D02*
X40717438Y-92381604D01*
X40717438Y-92381604D02*
X40765057Y-92429223D01*
X40765057Y-92429223D02*
X40860295Y-92476842D01*
X40860295Y-92476842D02*
X40955533Y-92476842D01*
X40955533Y-92476842D02*
X41098390Y-92429223D01*
X41098390Y-92429223D02*
X41669819Y-91857795D01*
X41669819Y-91857795D02*
X41669819Y-92476842D01*
X40669819Y-93381604D02*
X40669819Y-92905414D01*
X40669819Y-92905414D02*
X41146009Y-92857795D01*
X41146009Y-92857795D02*
X41098390Y-92905414D01*
X41098390Y-92905414D02*
X41050771Y-93000652D01*
X41050771Y-93000652D02*
X41050771Y-93238747D01*
X41050771Y-93238747D02*
X41098390Y-93333985D01*
X41098390Y-93333985D02*
X41146009Y-93381604D01*
X41146009Y-93381604D02*
X41241247Y-93429223D01*
X41241247Y-93429223D02*
X41479342Y-93429223D01*
X41479342Y-93429223D02*
X41574580Y-93381604D01*
X41574580Y-93381604D02*
X41622200Y-93333985D01*
X41622200Y-93333985D02*
X41669819Y-93238747D01*
X41669819Y-93238747D02*
X41669819Y-93000652D01*
X41669819Y-93000652D02*
X41622200Y-92905414D01*
X41622200Y-92905414D02*
X41574580Y-92857795D01*
X31010839Y-84722200D02*
X30867982Y-84769819D01*
X30867982Y-84769819D02*
X30629887Y-84769819D01*
X30629887Y-84769819D02*
X30534649Y-84722200D01*
X30534649Y-84722200D02*
X30487030Y-84674580D01*
X30487030Y-84674580D02*
X30439411Y-84579342D01*
X30439411Y-84579342D02*
X30439411Y-84484104D01*
X30439411Y-84484104D02*
X30487030Y-84388866D01*
X30487030Y-84388866D02*
X30534649Y-84341247D01*
X30534649Y-84341247D02*
X30629887Y-84293628D01*
X30629887Y-84293628D02*
X30820363Y-84246009D01*
X30820363Y-84246009D02*
X30915601Y-84198390D01*
X30915601Y-84198390D02*
X30963220Y-84150771D01*
X30963220Y-84150771D02*
X31010839Y-84055533D01*
X31010839Y-84055533D02*
X31010839Y-83960295D01*
X31010839Y-83960295D02*
X30963220Y-83865057D01*
X30963220Y-83865057D02*
X30915601Y-83817438D01*
X30915601Y-83817438D02*
X30820363Y-83769819D01*
X30820363Y-83769819D02*
X30582268Y-83769819D01*
X30582268Y-83769819D02*
X30439411Y-83817438D01*
X29439411Y-84674580D02*
X29487030Y-84722200D01*
X29487030Y-84722200D02*
X29629887Y-84769819D01*
X29629887Y-84769819D02*
X29725125Y-84769819D01*
X29725125Y-84769819D02*
X29867982Y-84722200D01*
X29867982Y-84722200D02*
X29963220Y-84626961D01*
X29963220Y-84626961D02*
X30010839Y-84531723D01*
X30010839Y-84531723D02*
X30058458Y-84341247D01*
X30058458Y-84341247D02*
X30058458Y-84198390D01*
X30058458Y-84198390D02*
X30010839Y-84007914D01*
X30010839Y-84007914D02*
X29963220Y-83912676D01*
X29963220Y-83912676D02*
X29867982Y-83817438D01*
X29867982Y-83817438D02*
X29725125Y-83769819D01*
X29725125Y-83769819D02*
X29629887Y-83769819D01*
X29629887Y-83769819D02*
X29487030Y-83817438D01*
X29487030Y-83817438D02*
X29439411Y-83865057D01*
X29010839Y-84769819D02*
X29010839Y-83769819D01*
X28439411Y-84769819D02*
X28867982Y-84198390D01*
X28439411Y-83769819D02*
X29010839Y-84341247D01*
X38291792Y-73169819D02*
X38625125Y-72693628D01*
X38863220Y-73169819D02*
X38863220Y-72169819D01*
X38863220Y-72169819D02*
X38482268Y-72169819D01*
X38482268Y-72169819D02*
X38387030Y-72217438D01*
X38387030Y-72217438D02*
X38339411Y-72265057D01*
X38339411Y-72265057D02*
X38291792Y-72360295D01*
X38291792Y-72360295D02*
X38291792Y-72503152D01*
X38291792Y-72503152D02*
X38339411Y-72598390D01*
X38339411Y-72598390D02*
X38387030Y-72646009D01*
X38387030Y-72646009D02*
X38482268Y-72693628D01*
X38482268Y-72693628D02*
X38863220Y-72693628D01*
X37910839Y-73122200D02*
X37767982Y-73169819D01*
X37767982Y-73169819D02*
X37529887Y-73169819D01*
X37529887Y-73169819D02*
X37434649Y-73122200D01*
X37434649Y-73122200D02*
X37387030Y-73074580D01*
X37387030Y-73074580D02*
X37339411Y-72979342D01*
X37339411Y-72979342D02*
X37339411Y-72884104D01*
X37339411Y-72884104D02*
X37387030Y-72788866D01*
X37387030Y-72788866D02*
X37434649Y-72741247D01*
X37434649Y-72741247D02*
X37529887Y-72693628D01*
X37529887Y-72693628D02*
X37720363Y-72646009D01*
X37720363Y-72646009D02*
X37815601Y-72598390D01*
X37815601Y-72598390D02*
X37863220Y-72550771D01*
X37863220Y-72550771D02*
X37910839Y-72455533D01*
X37910839Y-72455533D02*
X37910839Y-72360295D01*
X37910839Y-72360295D02*
X37863220Y-72265057D01*
X37863220Y-72265057D02*
X37815601Y-72217438D01*
X37815601Y-72217438D02*
X37720363Y-72169819D01*
X37720363Y-72169819D02*
X37482268Y-72169819D01*
X37482268Y-72169819D02*
X37339411Y-72217438D01*
X37053696Y-72169819D02*
X36482268Y-72169819D01*
X36767982Y-73169819D02*
X36767982Y-72169819D01*
X36148934Y-72788866D02*
X35387030Y-72788866D01*
X34387030Y-72217438D02*
X34482268Y-72169819D01*
X34482268Y-72169819D02*
X34625125Y-72169819D01*
X34625125Y-72169819D02*
X34767982Y-72217438D01*
X34767982Y-72217438D02*
X34863220Y-72312676D01*
X34863220Y-72312676D02*
X34910839Y-72407914D01*
X34910839Y-72407914D02*
X34958458Y-72598390D01*
X34958458Y-72598390D02*
X34958458Y-72741247D01*
X34958458Y-72741247D02*
X34910839Y-72931723D01*
X34910839Y-72931723D02*
X34863220Y-73026961D01*
X34863220Y-73026961D02*
X34767982Y-73122200D01*
X34767982Y-73122200D02*
X34625125Y-73169819D01*
X34625125Y-73169819D02*
X34529887Y-73169819D01*
X34529887Y-73169819D02*
X34387030Y-73122200D01*
X34387030Y-73122200D02*
X34339411Y-73074580D01*
X34339411Y-73074580D02*
X34339411Y-72741247D01*
X34339411Y-72741247D02*
X34529887Y-72741247D01*
X33910839Y-73169819D02*
X33910839Y-72169819D01*
X33910839Y-72169819D02*
X33339411Y-73169819D01*
X33339411Y-73169819D02*
X33339411Y-72169819D01*
X32863220Y-73169819D02*
X32863220Y-72169819D01*
X32863220Y-72169819D02*
X32625125Y-72169819D01*
X32625125Y-72169819D02*
X32482268Y-72217438D01*
X32482268Y-72217438D02*
X32387030Y-72312676D01*
X32387030Y-72312676D02*
X32339411Y-72407914D01*
X32339411Y-72407914D02*
X32291792Y-72598390D01*
X32291792Y-72598390D02*
X32291792Y-72741247D01*
X32291792Y-72741247D02*
X32339411Y-72931723D01*
X32339411Y-72931723D02*
X32387030Y-73026961D01*
X32387030Y-73026961D02*
X32482268Y-73122200D01*
X32482268Y-73122200D02*
X32625125Y-73169819D01*
X32625125Y-73169819D02*
X32863220Y-73169819D01*
D10*
X10300828Y-83254510D02*
X8800828Y-83254510D01*
X8800828Y-83254510D02*
X9872257Y-83754510D01*
X9872257Y-83754510D02*
X8800828Y-84254510D01*
X8800828Y-84254510D02*
X10300828Y-84254510D01*
X9729400Y-84968796D02*
X9729400Y-86111654D01*
X10300828Y-85540225D02*
X9157971Y-85540225D01*
D11*
X26010839Y-61084104D02*
X25534649Y-61084104D01*
X26106077Y-61369819D02*
X25772744Y-60369819D01*
X25772744Y-60369819D02*
X25439411Y-61369819D01*
X25201315Y-60369819D02*
X24582268Y-60369819D01*
X24582268Y-60369819D02*
X24915601Y-60750771D01*
X24915601Y-60750771D02*
X24772744Y-60750771D01*
X24772744Y-60750771D02*
X24677506Y-60798390D01*
X24677506Y-60798390D02*
X24629887Y-60846009D01*
X24629887Y-60846009D02*
X24582268Y-60941247D01*
X24582268Y-60941247D02*
X24582268Y-61179342D01*
X24582268Y-61179342D02*
X24629887Y-61274580D01*
X24629887Y-61274580D02*
X24677506Y-61322200D01*
X24677506Y-61322200D02*
X24772744Y-61369819D01*
X24772744Y-61369819D02*
X25058458Y-61369819D01*
X25058458Y-61369819D02*
X25153696Y-61322200D01*
X25153696Y-61322200D02*
X25201315Y-61274580D01*
X28510839Y-61084104D02*
X28034649Y-61084104D01*
X28606077Y-61369819D02*
X28272744Y-60369819D01*
X28272744Y-60369819D02*
X27939411Y-61369819D01*
X27082268Y-61369819D02*
X27653696Y-61369819D01*
X27367982Y-61369819D02*
X27367982Y-60369819D01*
X27367982Y-60369819D02*
X27463220Y-60512676D01*
X27463220Y-60512676D02*
X27558458Y-60607914D01*
X27558458Y-60607914D02*
X27653696Y-60655533D01*
X37058458Y-70669819D02*
X36534649Y-70003152D01*
X37058458Y-70003152D02*
X36534649Y-70669819D01*
X36153696Y-70288866D02*
X35391792Y-70288866D01*
X34391792Y-69717438D02*
X34487030Y-69669819D01*
X34487030Y-69669819D02*
X34629887Y-69669819D01*
X34629887Y-69669819D02*
X34772744Y-69717438D01*
X34772744Y-69717438D02*
X34867982Y-69812676D01*
X34867982Y-69812676D02*
X34915601Y-69907914D01*
X34915601Y-69907914D02*
X34963220Y-70098390D01*
X34963220Y-70098390D02*
X34963220Y-70241247D01*
X34963220Y-70241247D02*
X34915601Y-70431723D01*
X34915601Y-70431723D02*
X34867982Y-70526961D01*
X34867982Y-70526961D02*
X34772744Y-70622200D01*
X34772744Y-70622200D02*
X34629887Y-70669819D01*
X34629887Y-70669819D02*
X34534649Y-70669819D01*
X34534649Y-70669819D02*
X34391792Y-70622200D01*
X34391792Y-70622200D02*
X34344173Y-70574580D01*
X34344173Y-70574580D02*
X34344173Y-70241247D01*
X34344173Y-70241247D02*
X34534649Y-70241247D01*
X33915601Y-70669819D02*
X33915601Y-69669819D01*
X33915601Y-69669819D02*
X33344173Y-70669819D01*
X33344173Y-70669819D02*
X33344173Y-69669819D01*
X32867982Y-70669819D02*
X32867982Y-69669819D01*
X32867982Y-69669819D02*
X32629887Y-69669819D01*
X32629887Y-69669819D02*
X32487030Y-69717438D01*
X32487030Y-69717438D02*
X32391792Y-69812676D01*
X32391792Y-69812676D02*
X32344173Y-69907914D01*
X32344173Y-69907914D02*
X32296554Y-70098390D01*
X32296554Y-70098390D02*
X32296554Y-70241247D01*
X32296554Y-70241247D02*
X32344173Y-70431723D01*
X32344173Y-70431723D02*
X32391792Y-70526961D01*
X32391792Y-70526961D02*
X32487030Y-70622200D01*
X32487030Y-70622200D02*
X32629887Y-70669819D01*
X32629887Y-70669819D02*
X32867982Y-70669819D01*
X31063220Y-87369819D02*
X31063220Y-86369819D01*
X31063220Y-86369819D02*
X30729887Y-87084104D01*
X30729887Y-87084104D02*
X30396554Y-86369819D01*
X30396554Y-86369819D02*
X30396554Y-87369819D01*
X29729887Y-86369819D02*
X29539411Y-86369819D01*
X29539411Y-86369819D02*
X29444173Y-86417438D01*
X29444173Y-86417438D02*
X29348935Y-86512676D01*
X29348935Y-86512676D02*
X29301316Y-86703152D01*
X29301316Y-86703152D02*
X29301316Y-87036485D01*
X29301316Y-87036485D02*
X29348935Y-87226961D01*
X29348935Y-87226961D02*
X29444173Y-87322200D01*
X29444173Y-87322200D02*
X29539411Y-87369819D01*
X29539411Y-87369819D02*
X29729887Y-87369819D01*
X29729887Y-87369819D02*
X29825125Y-87322200D01*
X29825125Y-87322200D02*
X29920363Y-87226961D01*
X29920363Y-87226961D02*
X29967982Y-87036485D01*
X29967982Y-87036485D02*
X29967982Y-86703152D01*
X29967982Y-86703152D02*
X29920363Y-86512676D01*
X29920363Y-86512676D02*
X29825125Y-86417438D01*
X29825125Y-86417438D02*
X29729887Y-86369819D01*
X28920363Y-87322200D02*
X28777506Y-87369819D01*
X28777506Y-87369819D02*
X28539411Y-87369819D01*
X28539411Y-87369819D02*
X28444173Y-87322200D01*
X28444173Y-87322200D02*
X28396554Y-87274580D01*
X28396554Y-87274580D02*
X28348935Y-87179342D01*
X28348935Y-87179342D02*
X28348935Y-87084104D01*
X28348935Y-87084104D02*
X28396554Y-86988866D01*
X28396554Y-86988866D02*
X28444173Y-86941247D01*
X28444173Y-86941247D02*
X28539411Y-86893628D01*
X28539411Y-86893628D02*
X28729887Y-86846009D01*
X28729887Y-86846009D02*
X28825125Y-86798390D01*
X28825125Y-86798390D02*
X28872744Y-86750771D01*
X28872744Y-86750771D02*
X28920363Y-86655533D01*
X28920363Y-86655533D02*
X28920363Y-86560295D01*
X28920363Y-86560295D02*
X28872744Y-86465057D01*
X28872744Y-86465057D02*
X28825125Y-86417438D01*
X28825125Y-86417438D02*
X28729887Y-86369819D01*
X28729887Y-86369819D02*
X28491792Y-86369819D01*
X28491792Y-86369819D02*
X28348935Y-86417438D01*
X27920363Y-87369819D02*
X27920363Y-86369819D01*
X38391792Y-69274580D02*
X38439411Y-69322200D01*
X38439411Y-69322200D02*
X38582268Y-69369819D01*
X38582268Y-69369819D02*
X38677506Y-69369819D01*
X38677506Y-69369819D02*
X38820363Y-69322200D01*
X38820363Y-69322200D02*
X38915601Y-69226961D01*
X38915601Y-69226961D02*
X38963220Y-69131723D01*
X38963220Y-69131723D02*
X39010839Y-68941247D01*
X39010839Y-68941247D02*
X39010839Y-68798390D01*
X39010839Y-68798390D02*
X38963220Y-68607914D01*
X38963220Y-68607914D02*
X38915601Y-68512676D01*
X38915601Y-68512676D02*
X38820363Y-68417438D01*
X38820363Y-68417438D02*
X38677506Y-68369819D01*
X38677506Y-68369819D02*
X38582268Y-68369819D01*
X38582268Y-68369819D02*
X38439411Y-68417438D01*
X38439411Y-68417438D02*
X38391792Y-68465057D01*
X37487030Y-69369819D02*
X37963220Y-69369819D01*
X37963220Y-69369819D02*
X37963220Y-68369819D01*
X37153696Y-69369819D02*
X37153696Y-68369819D01*
X36582268Y-69369819D02*
X37010839Y-68798390D01*
X36582268Y-68369819D02*
X37153696Y-68941247D01*
X36153696Y-68988866D02*
X35391792Y-68988866D01*
X34391792Y-68417438D02*
X34487030Y-68369819D01*
X34487030Y-68369819D02*
X34629887Y-68369819D01*
X34629887Y-68369819D02*
X34772744Y-68417438D01*
X34772744Y-68417438D02*
X34867982Y-68512676D01*
X34867982Y-68512676D02*
X34915601Y-68607914D01*
X34915601Y-68607914D02*
X34963220Y-68798390D01*
X34963220Y-68798390D02*
X34963220Y-68941247D01*
X34963220Y-68941247D02*
X34915601Y-69131723D01*
X34915601Y-69131723D02*
X34867982Y-69226961D01*
X34867982Y-69226961D02*
X34772744Y-69322200D01*
X34772744Y-69322200D02*
X34629887Y-69369819D01*
X34629887Y-69369819D02*
X34534649Y-69369819D01*
X34534649Y-69369819D02*
X34391792Y-69322200D01*
X34391792Y-69322200D02*
X34344173Y-69274580D01*
X34344173Y-69274580D02*
X34344173Y-68941247D01*
X34344173Y-68941247D02*
X34534649Y-68941247D01*
X33915601Y-69369819D02*
X33915601Y-68369819D01*
X33915601Y-68369819D02*
X33344173Y-69369819D01*
X33344173Y-69369819D02*
X33344173Y-68369819D01*
X32867982Y-69369819D02*
X32867982Y-68369819D01*
X32867982Y-68369819D02*
X32629887Y-68369819D01*
X32629887Y-68369819D02*
X32487030Y-68417438D01*
X32487030Y-68417438D02*
X32391792Y-68512676D01*
X32391792Y-68512676D02*
X32344173Y-68607914D01*
X32344173Y-68607914D02*
X32296554Y-68798390D01*
X32296554Y-68798390D02*
X32296554Y-68941247D01*
X32296554Y-68941247D02*
X32344173Y-69131723D01*
X32344173Y-69131723D02*
X32391792Y-69226961D01*
X32391792Y-69226961D02*
X32487030Y-69322200D01*
X32487030Y-69322200D02*
X32629887Y-69369819D01*
X32629887Y-69369819D02*
X32867982Y-69369819D01*
X37663220Y-68069819D02*
X37663220Y-67069819D01*
X36996554Y-67069819D02*
X36806078Y-67069819D01*
X36806078Y-67069819D02*
X36710840Y-67117438D01*
X36710840Y-67117438D02*
X36615602Y-67212676D01*
X36615602Y-67212676D02*
X36567983Y-67403152D01*
X36567983Y-67403152D02*
X36567983Y-67736485D01*
X36567983Y-67736485D02*
X36615602Y-67926961D01*
X36615602Y-67926961D02*
X36710840Y-68022200D01*
X36710840Y-68022200D02*
X36806078Y-68069819D01*
X36806078Y-68069819D02*
X36996554Y-68069819D01*
X36996554Y-68069819D02*
X37091792Y-68022200D01*
X37091792Y-68022200D02*
X37187030Y-67926961D01*
X37187030Y-67926961D02*
X37234649Y-67736485D01*
X37234649Y-67736485D02*
X37234649Y-67403152D01*
X37234649Y-67403152D02*
X37187030Y-67212676D01*
X37187030Y-67212676D02*
X37091792Y-67117438D01*
X37091792Y-67117438D02*
X36996554Y-67069819D01*
X36139411Y-67688866D02*
X35377507Y-67688866D01*
X34996554Y-67069819D02*
X34377507Y-67069819D01*
X34377507Y-67069819D02*
X34710840Y-67450771D01*
X34710840Y-67450771D02*
X34567983Y-67450771D01*
X34567983Y-67450771D02*
X34472745Y-67498390D01*
X34472745Y-67498390D02*
X34425126Y-67546009D01*
X34425126Y-67546009D02*
X34377507Y-67641247D01*
X34377507Y-67641247D02*
X34377507Y-67879342D01*
X34377507Y-67879342D02*
X34425126Y-67974580D01*
X34425126Y-67974580D02*
X34472745Y-68022200D01*
X34472745Y-68022200D02*
X34567983Y-68069819D01*
X34567983Y-68069819D02*
X34853697Y-68069819D01*
X34853697Y-68069819D02*
X34948935Y-68022200D01*
X34948935Y-68022200D02*
X34996554Y-67974580D01*
X34044173Y-67403152D02*
X33806078Y-68069819D01*
X33806078Y-68069819D02*
X33567983Y-67403152D01*
X33282268Y-67069819D02*
X32663221Y-67069819D01*
X32663221Y-67069819D02*
X32996554Y-67450771D01*
X32996554Y-67450771D02*
X32853697Y-67450771D01*
X32853697Y-67450771D02*
X32758459Y-67498390D01*
X32758459Y-67498390D02*
X32710840Y-67546009D01*
X32710840Y-67546009D02*
X32663221Y-67641247D01*
X32663221Y-67641247D02*
X32663221Y-67879342D01*
X32663221Y-67879342D02*
X32710840Y-67974580D01*
X32710840Y-67974580D02*
X32758459Y-68022200D01*
X32758459Y-68022200D02*
X32853697Y-68069819D01*
X32853697Y-68069819D02*
X33139411Y-68069819D01*
X33139411Y-68069819D02*
X33234649Y-68022200D01*
X33234649Y-68022200D02*
X33282268Y-67974580D01*
X37058458Y-71769819D02*
X36534649Y-71103152D01*
X37058458Y-71103152D02*
X36534649Y-71769819D01*
X36153696Y-71388866D02*
X35391792Y-71388866D01*
X35010839Y-71769819D02*
X34487030Y-71103152D01*
X35010839Y-71103152D02*
X34487030Y-71769819D01*
X38810839Y-82122200D02*
X38667982Y-82169819D01*
X38667982Y-82169819D02*
X38429887Y-82169819D01*
X38429887Y-82169819D02*
X38334649Y-82122200D01*
X38334649Y-82122200D02*
X38287030Y-82074580D01*
X38287030Y-82074580D02*
X38239411Y-81979342D01*
X38239411Y-81979342D02*
X38239411Y-81884104D01*
X38239411Y-81884104D02*
X38287030Y-81788866D01*
X38287030Y-81788866D02*
X38334649Y-81741247D01*
X38334649Y-81741247D02*
X38429887Y-81693628D01*
X38429887Y-81693628D02*
X38620363Y-81646009D01*
X38620363Y-81646009D02*
X38715601Y-81598390D01*
X38715601Y-81598390D02*
X38763220Y-81550771D01*
X38763220Y-81550771D02*
X38810839Y-81455533D01*
X38810839Y-81455533D02*
X38810839Y-81360295D01*
X38810839Y-81360295D02*
X38763220Y-81265057D01*
X38763220Y-81265057D02*
X38715601Y-81217438D01*
X38715601Y-81217438D02*
X38620363Y-81169819D01*
X38620363Y-81169819D02*
X38382268Y-81169819D01*
X38382268Y-81169819D02*
X38239411Y-81217438D01*
X37810839Y-82169819D02*
X37810839Y-81169819D01*
X37810839Y-81169819D02*
X37572744Y-81169819D01*
X37572744Y-81169819D02*
X37429887Y-81217438D01*
X37429887Y-81217438D02*
X37334649Y-81312676D01*
X37334649Y-81312676D02*
X37287030Y-81407914D01*
X37287030Y-81407914D02*
X37239411Y-81598390D01*
X37239411Y-81598390D02*
X37239411Y-81741247D01*
X37239411Y-81741247D02*
X37287030Y-81931723D01*
X37287030Y-81931723D02*
X37334649Y-82026961D01*
X37334649Y-82026961D02*
X37429887Y-82122200D01*
X37429887Y-82122200D02*
X37572744Y-82169819D01*
X37572744Y-82169819D02*
X37810839Y-82169819D01*
X36858458Y-81884104D02*
X36382268Y-81884104D01*
X36953696Y-82169819D02*
X36620363Y-81169819D01*
X36620363Y-81169819D02*
X36287030Y-82169819D01*
X20910839Y-61084104D02*
X20434649Y-61084104D01*
X21006077Y-61369819D02*
X20672744Y-60369819D01*
X20672744Y-60369819D02*
X20339411Y-61369819D01*
X19529887Y-60369819D02*
X20006077Y-60369819D01*
X20006077Y-60369819D02*
X20053696Y-60846009D01*
X20053696Y-60846009D02*
X20006077Y-60798390D01*
X20006077Y-60798390D02*
X19910839Y-60750771D01*
X19910839Y-60750771D02*
X19672744Y-60750771D01*
X19672744Y-60750771D02*
X19577506Y-60798390D01*
X19577506Y-60798390D02*
X19529887Y-60846009D01*
X19529887Y-60846009D02*
X19482268Y-60941247D01*
X19482268Y-60941247D02*
X19482268Y-61179342D01*
X19482268Y-61179342D02*
X19529887Y-61274580D01*
X19529887Y-61274580D02*
X19577506Y-61322200D01*
X19577506Y-61322200D02*
X19672744Y-61369819D01*
X19672744Y-61369819D02*
X19910839Y-61369819D01*
X19910839Y-61369819D02*
X20006077Y-61322200D01*
X20006077Y-61322200D02*
X20053696Y-61274580D01*
X23410839Y-61084104D02*
X22934649Y-61084104D01*
X23506077Y-61369819D02*
X23172744Y-60369819D01*
X23172744Y-60369819D02*
X22839411Y-61369819D01*
X22077506Y-60703152D02*
X22077506Y-61369819D01*
X22315601Y-60322200D02*
X22553696Y-61036485D01*
X22553696Y-61036485D02*
X21934649Y-61036485D01*
X31010839Y-61084104D02*
X30534649Y-61084104D01*
X31106077Y-61369819D02*
X30772744Y-60369819D01*
X30772744Y-60369819D02*
X30439411Y-61369819D01*
X29915601Y-60369819D02*
X29820363Y-60369819D01*
X29820363Y-60369819D02*
X29725125Y-60417438D01*
X29725125Y-60417438D02*
X29677506Y-60465057D01*
X29677506Y-60465057D02*
X29629887Y-60560295D01*
X29629887Y-60560295D02*
X29582268Y-60750771D01*
X29582268Y-60750771D02*
X29582268Y-60988866D01*
X29582268Y-60988866D02*
X29629887Y-61179342D01*
X29629887Y-61179342D02*
X29677506Y-61274580D01*
X29677506Y-61274580D02*
X29725125Y-61322200D01*
X29725125Y-61322200D02*
X29820363Y-61369819D01*
X29820363Y-61369819D02*
X29915601Y-61369819D01*
X29915601Y-61369819D02*
X30010839Y-61322200D01*
X30010839Y-61322200D02*
X30058458Y-61274580D01*
X30058458Y-61274580D02*
X30106077Y-61179342D01*
X30106077Y-61179342D02*
X30153696Y-60988866D01*
X30153696Y-60988866D02*
X30153696Y-60750771D01*
X30153696Y-60750771D02*
X30106077Y-60560295D01*
X30106077Y-60560295D02*
X30058458Y-60465057D01*
X30058458Y-60465057D02*
X30010839Y-60417438D01*
X30010839Y-60417438D02*
X29915601Y-60369819D01*
X31010839Y-82222200D02*
X30867982Y-82269819D01*
X30867982Y-82269819D02*
X30629887Y-82269819D01*
X30629887Y-82269819D02*
X30534649Y-82222200D01*
X30534649Y-82222200D02*
X30487030Y-82174580D01*
X30487030Y-82174580D02*
X30439411Y-82079342D01*
X30439411Y-82079342D02*
X30439411Y-81984104D01*
X30439411Y-81984104D02*
X30487030Y-81888866D01*
X30487030Y-81888866D02*
X30534649Y-81841247D01*
X30534649Y-81841247D02*
X30629887Y-81793628D01*
X30629887Y-81793628D02*
X30820363Y-81746009D01*
X30820363Y-81746009D02*
X30915601Y-81698390D01*
X30915601Y-81698390D02*
X30963220Y-81650771D01*
X30963220Y-81650771D02*
X31010839Y-81555533D01*
X31010839Y-81555533D02*
X31010839Y-81460295D01*
X31010839Y-81460295D02*
X30963220Y-81365057D01*
X30963220Y-81365057D02*
X30915601Y-81317438D01*
X30915601Y-81317438D02*
X30820363Y-81269819D01*
X30820363Y-81269819D02*
X30582268Y-81269819D01*
X30582268Y-81269819D02*
X30439411Y-81317438D01*
X29439411Y-82174580D02*
X29487030Y-82222200D01*
X29487030Y-82222200D02*
X29629887Y-82269819D01*
X29629887Y-82269819D02*
X29725125Y-82269819D01*
X29725125Y-82269819D02*
X29867982Y-82222200D01*
X29867982Y-82222200D02*
X29963220Y-82126961D01*
X29963220Y-82126961D02*
X30010839Y-82031723D01*
X30010839Y-82031723D02*
X30058458Y-81841247D01*
X30058458Y-81841247D02*
X30058458Y-81698390D01*
X30058458Y-81698390D02*
X30010839Y-81507914D01*
X30010839Y-81507914D02*
X29963220Y-81412676D01*
X29963220Y-81412676D02*
X29867982Y-81317438D01*
X29867982Y-81317438D02*
X29725125Y-81269819D01*
X29725125Y-81269819D02*
X29629887Y-81269819D01*
X29629887Y-81269819D02*
X29487030Y-81317438D01*
X29487030Y-81317438D02*
X29439411Y-81365057D01*
X28534649Y-82269819D02*
X29010839Y-82269819D01*
X29010839Y-82269819D02*
X29010839Y-81269819D01*
X20361904Y-73254819D02*
X20361904Y-74064342D01*
X20361904Y-74064342D02*
X20314285Y-74159580D01*
X20314285Y-74159580D02*
X20266666Y-74207200D01*
X20266666Y-74207200D02*
X20171428Y-74254819D01*
X20171428Y-74254819D02*
X19980952Y-74254819D01*
X19980952Y-74254819D02*
X19885714Y-74207200D01*
X19885714Y-74207200D02*
X19838095Y-74159580D01*
X19838095Y-74159580D02*
X19790476Y-74064342D01*
X19790476Y-74064342D02*
X19790476Y-73254819D01*
X19361904Y-73350057D02*
X19314285Y-73302438D01*
X19314285Y-73302438D02*
X19219047Y-73254819D01*
X19219047Y-73254819D02*
X18980952Y-73254819D01*
X18980952Y-73254819D02*
X18885714Y-73302438D01*
X18885714Y-73302438D02*
X18838095Y-73350057D01*
X18838095Y-73350057D02*
X18790476Y-73445295D01*
X18790476Y-73445295D02*
X18790476Y-73540533D01*
X18790476Y-73540533D02*
X18838095Y-73683390D01*
X18838095Y-73683390D02*
X19409523Y-74254819D01*
X19409523Y-74254819D02*
X18790476Y-74254819D01*
X21342857Y-86459580D02*
X21390476Y-86507200D01*
X21390476Y-86507200D02*
X21533333Y-86554819D01*
X21533333Y-86554819D02*
X21628571Y-86554819D01*
X21628571Y-86554819D02*
X21771428Y-86507200D01*
X21771428Y-86507200D02*
X21866666Y-86411961D01*
X21866666Y-86411961D02*
X21914285Y-86316723D01*
X21914285Y-86316723D02*
X21961904Y-86126247D01*
X21961904Y-86126247D02*
X21961904Y-85983390D01*
X21961904Y-85983390D02*
X21914285Y-85792914D01*
X21914285Y-85792914D02*
X21866666Y-85697676D01*
X21866666Y-85697676D02*
X21771428Y-85602438D01*
X21771428Y-85602438D02*
X21628571Y-85554819D01*
X21628571Y-85554819D02*
X21533333Y-85554819D01*
X21533333Y-85554819D02*
X21390476Y-85602438D01*
X21390476Y-85602438D02*
X21342857Y-85650057D01*
X20390476Y-86554819D02*
X20961904Y-86554819D01*
X20676190Y-86554819D02*
X20676190Y-85554819D01*
X20676190Y-85554819D02*
X20771428Y-85697676D01*
X20771428Y-85697676D02*
X20866666Y-85792914D01*
X20866666Y-85792914D02*
X20961904Y-85840533D01*
X19533333Y-85554819D02*
X19723809Y-85554819D01*
X19723809Y-85554819D02*
X19819047Y-85602438D01*
X19819047Y-85602438D02*
X19866666Y-85650057D01*
X19866666Y-85650057D02*
X19961904Y-85792914D01*
X19961904Y-85792914D02*
X20009523Y-85983390D01*
X20009523Y-85983390D02*
X20009523Y-86364342D01*
X20009523Y-86364342D02*
X19961904Y-86459580D01*
X19961904Y-86459580D02*
X19914285Y-86507200D01*
X19914285Y-86507200D02*
X19819047Y-86554819D01*
X19819047Y-86554819D02*
X19628571Y-86554819D01*
X19628571Y-86554819D02*
X19533333Y-86507200D01*
X19533333Y-86507200D02*
X19485714Y-86459580D01*
X19485714Y-86459580D02*
X19438095Y-86364342D01*
X19438095Y-86364342D02*
X19438095Y-86126247D01*
X19438095Y-86126247D02*
X19485714Y-86031009D01*
X19485714Y-86031009D02*
X19533333Y-85983390D01*
X19533333Y-85983390D02*
X19628571Y-85935771D01*
X19628571Y-85935771D02*
X19819047Y-85935771D01*
X19819047Y-85935771D02*
X19914285Y-85983390D01*
X19914285Y-85983390D02*
X19961904Y-86031009D01*
X19961904Y-86031009D02*
X20009523Y-86126247D01*
D12*
%TO.C,U2*%
X18890000Y-78500000D02*
X18890000Y-74900000D01*
X18890000Y-78500000D02*
X18890000Y-80700000D01*
X24110000Y-78500000D02*
X24110000Y-76300000D01*
X24110000Y-78500000D02*
X24110000Y-80700000D01*
%TO.C,C16*%
X20861253Y-83165000D02*
X20338747Y-83165000D01*
X20861253Y-84635000D02*
X20338747Y-84635000D01*
D13*
%TO.C,REF\u002A\u002A*%
X6091938Y-67698439D02*
X6200296Y-67700441D01*
X6297389Y-67703967D01*
X6376790Y-67709013D01*
X6432072Y-67715572D01*
X6456810Y-67723644D01*
X6459600Y-67728542D01*
X6471569Y-67765070D01*
X6487405Y-67828434D01*
X6505374Y-67911314D01*
X6523741Y-68006382D01*
X6529591Y-68038458D01*
X6556798Y-68186607D01*
X6578663Y-68303039D01*
X6596093Y-68391791D01*
X6609996Y-68456897D01*
X6621277Y-68502394D01*
X6630843Y-68532318D01*
X6639601Y-68550706D01*
X6648457Y-68561592D01*
X6649944Y-68562858D01*
X6680931Y-68580662D01*
X6737634Y-68607006D01*
X6813399Y-68639340D01*
X6901575Y-68675107D01*
X6995507Y-68711756D01*
X7088547Y-68746734D01*
X7174040Y-68777487D01*
X7245336Y-68801461D01*
X7295782Y-68816105D01*
X7318726Y-68818864D01*
X7321703Y-68817019D01*
X7350493Y-68797925D01*
X7403595Y-68762016D01*
X7476117Y-68712622D01*
X7563167Y-68653073D01*
X7659854Y-68586697D01*
X7686456Y-68568480D01*
X7781875Y-68504424D01*
X7867212Y-68449063D01*
X7937405Y-68405561D01*
X7987394Y-68377076D01*
X8012116Y-68366768D01*
X8018616Y-68368989D01*
X8050644Y-68392142D01*
X8102945Y-68437823D01*
X8171999Y-68502759D01*
X8254286Y-68583680D01*
X8346286Y-68677315D01*
X8397781Y-68730835D01*
X8477983Y-68815458D01*
X8546678Y-68889525D01*
X8600252Y-68949059D01*
X8635085Y-68990084D01*
X8647563Y-69008619D01*
X8642937Y-69021354D01*
X8621057Y-69060564D01*
X8585273Y-69117505D01*
X8540117Y-69184749D01*
X8507165Y-69232562D01*
X8441727Y-69328015D01*
X8372229Y-69429875D01*
X8309076Y-69522912D01*
X8185801Y-69705168D01*
X8268519Y-69858159D01*
X8287613Y-69894183D01*
X8320272Y-69959697D01*
X8342819Y-70010360D01*
X8351225Y-70037436D01*
X8340430Y-70046297D01*
X8299323Y-70068301D01*
X8231549Y-70100801D01*
X8141409Y-70141990D01*
X8033206Y-70190058D01*
X7911237Y-70243198D01*
X7779808Y-70299601D01*
X7643218Y-70357458D01*
X7505767Y-70414962D01*
X7371758Y-70470303D01*
X7245491Y-70521674D01*
X7131268Y-70567265D01*
X7033390Y-70605268D01*
X6956157Y-70633876D01*
X6903871Y-70651279D01*
X6880833Y-70655669D01*
X6880160Y-70655372D01*
X6858862Y-70634923D01*
X6825508Y-70592150D01*
X6787011Y-70535883D01*
X6775256Y-70518123D01*
X6663735Y-70382986D01*
X6530906Y-70271144D01*
X6382298Y-70185245D01*
X6223440Y-70127938D01*
X6059860Y-70101869D01*
X5897088Y-70109687D01*
X5752315Y-70141356D01*
X5606124Y-70198218D01*
X5475703Y-70281111D01*
X5351813Y-70394869D01*
X5312235Y-70439567D01*
X5214723Y-70584065D01*
X5149050Y-70740162D01*
X5114630Y-70903333D01*
X5110874Y-71069057D01*
X5137194Y-71232808D01*
X5193003Y-71390064D01*
X5277714Y-71536302D01*
X5390737Y-71666995D01*
X5531487Y-71777626D01*
X5566342Y-71798896D01*
X5725655Y-71871190D01*
X5891552Y-71909585D01*
X6059737Y-71915086D01*
X6225913Y-71888699D01*
X6385784Y-71831430D01*
X6535053Y-71744283D01*
X6669423Y-71628264D01*
X6784599Y-71484378D01*
X6787702Y-71479706D01*
X6826933Y-71424036D01*
X6860286Y-71382311D01*
X6880833Y-71363253D01*
X6896941Y-71365658D01*
X6943844Y-71380609D01*
X7016539Y-71407119D01*
X7110725Y-71443380D01*
X7222098Y-71487584D01*
X7346358Y-71537924D01*
X7479202Y-71592593D01*
X7616327Y-71649782D01*
X7753432Y-71707684D01*
X7886215Y-71764491D01*
X8010374Y-71818394D01*
X8121606Y-71867587D01*
X8215609Y-71910263D01*
X8288082Y-71944613D01*
X8334722Y-71968829D01*
X8351225Y-71981103D01*
X8348991Y-71991311D01*
X8332926Y-72031414D01*
X8304759Y-72090682D01*
X8268520Y-72160381D01*
X8185800Y-72313372D01*
X8309076Y-72495627D01*
X8345579Y-72549473D01*
X8413784Y-72649626D01*
X8482098Y-72749475D01*
X8540117Y-72833790D01*
X8571736Y-72880321D01*
X8611020Y-72940800D01*
X8637912Y-72985643D01*
X8647883Y-73007545D01*
X8643649Y-73016955D01*
X8617721Y-73050969D01*
X8572070Y-73103405D01*
X8511186Y-73169699D01*
X8439561Y-73245287D01*
X8361683Y-73325603D01*
X8282045Y-73406087D01*
X8205135Y-73482171D01*
X8135445Y-73549293D01*
X8077464Y-73602888D01*
X8035684Y-73638392D01*
X8014593Y-73651241D01*
X8010581Y-73650500D01*
X7977920Y-73635207D01*
X7921412Y-73602538D01*
X7846163Y-73555650D01*
X7757275Y-73497699D01*
X7659854Y-73431843D01*
X7632982Y-73413373D01*
X7538422Y-73348518D01*
X7454827Y-73291391D01*
X7387084Y-73245322D01*
X7340085Y-73213641D01*
X7318726Y-73199676D01*
X7317812Y-73199332D01*
X7291678Y-73203454D01*
X7238740Y-73219193D01*
X7165647Y-73243996D01*
X7079052Y-73275311D01*
X6985608Y-73310583D01*
X6891965Y-73347260D01*
X6804777Y-73382788D01*
X6730694Y-73414614D01*
X6676371Y-73440184D01*
X6648456Y-73456947D01*
X6646724Y-73458626D01*
X6637956Y-73470628D01*
X6629115Y-73490897D01*
X6619292Y-73523471D01*
X6607583Y-73572384D01*
X6593080Y-73641673D01*
X6574876Y-73735375D01*
X6552066Y-73857524D01*
X6523741Y-74012158D01*
X6517780Y-74044230D01*
X6499352Y-74136107D01*
X6481892Y-74213393D01*
X6467133Y-74268764D01*
X6456810Y-74294895D01*
X6448197Y-74299267D01*
X6406826Y-74306555D01*
X6338241Y-74312331D01*
X6248868Y-74316590D01*
X6145135Y-74319328D01*
X6033464Y-74320538D01*
X5920287Y-74320218D01*
X5812026Y-74318364D01*
X5715108Y-74314970D01*
X5635959Y-74310033D01*
X5581006Y-74303548D01*
X5556674Y-74295511D01*
X5553079Y-74287304D01*
X5541748Y-74246481D01*
X5525722Y-74177476D01*
X5506195Y-74085797D01*
X5484361Y-73976950D01*
X5461419Y-73856442D01*
X5449159Y-73790643D01*
X5427900Y-73677865D01*
X5409287Y-73580793D01*
X5394328Y-73504618D01*
X5384036Y-73454531D01*
X5379422Y-73435724D01*
X5378471Y-73435017D01*
X5354310Y-73423039D01*
X5303694Y-73400206D01*
X5233339Y-73369370D01*
X5149958Y-73333387D01*
X5060270Y-73295110D01*
X4970989Y-73257391D01*
X4888832Y-73223086D01*
X4820513Y-73195051D01*
X4772748Y-73176136D01*
X4752253Y-73169197D01*
X4745043Y-73172258D01*
X4710728Y-73192628D01*
X4652970Y-73229578D01*
X4576299Y-73280140D01*
X4485248Y-73341343D01*
X4384350Y-73410219D01*
X4329093Y-73448006D01*
X4232215Y-73513218D01*
X4147193Y-73569129D01*
X4078662Y-73612760D01*
X4031261Y-73641123D01*
X4009622Y-73651241D01*
X3997887Y-73644210D01*
X3962818Y-73614803D01*
X3909745Y-73566559D01*
X3843164Y-73503907D01*
X3767574Y-73431276D01*
X3687472Y-73353092D01*
X3607354Y-73273786D01*
X3531718Y-73197787D01*
X3465062Y-73129522D01*
X3411882Y-73073420D01*
X3376676Y-73033910D01*
X3363942Y-73015420D01*
X3368893Y-73005158D01*
X3391857Y-72967470D01*
X3430937Y-72906652D01*
X3483272Y-72827087D01*
X3545996Y-72733157D01*
X3616246Y-72629245D01*
X3868551Y-72258206D01*
X3741053Y-71948920D01*
X3613555Y-71639635D01*
X3168931Y-71555814D01*
X2724307Y-71471994D01*
X2724307Y-70546546D01*
X3168931Y-70462725D01*
X3613555Y-70378905D01*
X3868551Y-69760333D01*
X3616246Y-69389293D01*
X3566506Y-69315855D01*
X3501218Y-69218501D01*
X3445454Y-69134213D01*
X3402078Y-69067369D01*
X3373953Y-69022346D01*
X3363942Y-69003521D01*
X3371060Y-68991961D01*
X3400894Y-68957404D01*
X3449852Y-68905106D01*
X3513440Y-68839500D01*
X3587163Y-68765017D01*
X3666525Y-68686086D01*
X3747031Y-68607144D01*
X3824185Y-68532617D01*
X3893493Y-68466937D01*
X3950457Y-68414537D01*
X3990583Y-68379847D01*
X4009377Y-68367299D01*
X4017451Y-68370218D01*
X4053469Y-68390429D01*
X4112744Y-68427337D01*
X4190630Y-68477950D01*
X4282481Y-68539275D01*
X4383650Y-68608322D01*
X4438826Y-68646213D01*
X4534884Y-68711394D01*
X4618717Y-68767277D01*
X4685778Y-68810883D01*
X4731519Y-68839231D01*
X4751396Y-68849343D01*
X4752497Y-68849177D01*
X4777694Y-68840257D01*
X4829146Y-68819794D01*
X4900135Y-68790641D01*
X4983935Y-68755647D01*
X5073828Y-68717668D01*
X5163091Y-68679556D01*
X5245003Y-68644161D01*
X5312843Y-68614338D01*
X5359890Y-68592939D01*
X5379422Y-68582816D01*
X5381155Y-68576826D01*
X5388969Y-68540434D01*
X5401916Y-68475573D01*
X5418980Y-68387435D01*
X5439151Y-68281213D01*
X5461418Y-68162098D01*
X5473223Y-68099317D01*
X5495748Y-67984088D01*
X5516550Y-67883338D01*
X5534434Y-67802574D01*
X5548208Y-67747302D01*
X5556674Y-67723029D01*
X5565066Y-67718669D01*
X5606072Y-67711437D01*
X5674368Y-67705754D01*
X5763529Y-67701618D01*
X5867128Y-67699023D01*
X5978740Y-67697964D01*
X6091938Y-67698439D01*
G36*
X6091938Y-67698439D02*
G01*
X6200296Y-67700441D01*
X6297389Y-67703967D01*
X6376790Y-67709013D01*
X6432072Y-67715572D01*
X6456810Y-67723644D01*
X6459600Y-67728542D01*
X6471569Y-67765070D01*
X6487405Y-67828434D01*
X6505374Y-67911314D01*
X6523741Y-68006382D01*
X6529591Y-68038458D01*
X6556798Y-68186607D01*
X6578663Y-68303039D01*
X6596093Y-68391791D01*
X6609996Y-68456897D01*
X6621277Y-68502394D01*
X6630843Y-68532318D01*
X6639601Y-68550706D01*
X6648457Y-68561592D01*
X6649944Y-68562858D01*
X6680931Y-68580662D01*
X6737634Y-68607006D01*
X6813399Y-68639340D01*
X6901575Y-68675107D01*
X6995507Y-68711756D01*
X7088547Y-68746734D01*
X7174040Y-68777487D01*
X7245336Y-68801461D01*
X7295782Y-68816105D01*
X7318726Y-68818864D01*
X7321703Y-68817019D01*
X7350493Y-68797925D01*
X7403595Y-68762016D01*
X7476117Y-68712622D01*
X7563167Y-68653073D01*
X7659854Y-68586697D01*
X7686456Y-68568480D01*
X7781875Y-68504424D01*
X7867212Y-68449063D01*
X7937405Y-68405561D01*
X7987394Y-68377076D01*
X8012116Y-68366768D01*
X8018616Y-68368989D01*
X8050644Y-68392142D01*
X8102945Y-68437823D01*
X8171999Y-68502759D01*
X8254286Y-68583680D01*
X8346286Y-68677315D01*
X8397781Y-68730835D01*
X8477983Y-68815458D01*
X8546678Y-68889525D01*
X8600252Y-68949059D01*
X8635085Y-68990084D01*
X8647563Y-69008619D01*
X8642937Y-69021354D01*
X8621057Y-69060564D01*
X8585273Y-69117505D01*
X8540117Y-69184749D01*
X8507165Y-69232562D01*
X8441727Y-69328015D01*
X8372229Y-69429875D01*
X8309076Y-69522912D01*
X8185801Y-69705168D01*
X8268519Y-69858159D01*
X8287613Y-69894183D01*
X8320272Y-69959697D01*
X8342819Y-70010360D01*
X8351225Y-70037436D01*
X8340430Y-70046297D01*
X8299323Y-70068301D01*
X8231549Y-70100801D01*
X8141409Y-70141990D01*
X8033206Y-70190058D01*
X7911237Y-70243198D01*
X7779808Y-70299601D01*
X7643218Y-70357458D01*
X7505767Y-70414962D01*
X7371758Y-70470303D01*
X7245491Y-70521674D01*
X7131268Y-70567265D01*
X7033390Y-70605268D01*
X6956157Y-70633876D01*
X6903871Y-70651279D01*
X6880833Y-70655669D01*
X6880160Y-70655372D01*
X6858862Y-70634923D01*
X6825508Y-70592150D01*
X6787011Y-70535883D01*
X6775256Y-70518123D01*
X6663735Y-70382986D01*
X6530906Y-70271144D01*
X6382298Y-70185245D01*
X6223440Y-70127938D01*
X6059860Y-70101869D01*
X5897088Y-70109687D01*
X5752315Y-70141356D01*
X5606124Y-70198218D01*
X5475703Y-70281111D01*
X5351813Y-70394869D01*
X5312235Y-70439567D01*
X5214723Y-70584065D01*
X5149050Y-70740162D01*
X5114630Y-70903333D01*
X5110874Y-71069057D01*
X5137194Y-71232808D01*
X5193003Y-71390064D01*
X5277714Y-71536302D01*
X5390737Y-71666995D01*
X5531487Y-71777626D01*
X5566342Y-71798896D01*
X5725655Y-71871190D01*
X5891552Y-71909585D01*
X6059737Y-71915086D01*
X6225913Y-71888699D01*
X6385784Y-71831430D01*
X6535053Y-71744283D01*
X6669423Y-71628264D01*
X6784599Y-71484378D01*
X6787702Y-71479706D01*
X6826933Y-71424036D01*
X6860286Y-71382311D01*
X6880833Y-71363253D01*
X6896941Y-71365658D01*
X6943844Y-71380609D01*
X7016539Y-71407119D01*
X7110725Y-71443380D01*
X7222098Y-71487584D01*
X7346358Y-71537924D01*
X7479202Y-71592593D01*
X7616327Y-71649782D01*
X7753432Y-71707684D01*
X7886215Y-71764491D01*
X8010374Y-71818394D01*
X8121606Y-71867587D01*
X8215609Y-71910263D01*
X8288082Y-71944613D01*
X8334722Y-71968829D01*
X8351225Y-71981103D01*
X8348991Y-71991311D01*
X8332926Y-72031414D01*
X8304759Y-72090682D01*
X8268520Y-72160381D01*
X8185800Y-72313372D01*
X8309076Y-72495627D01*
X8345579Y-72549473D01*
X8413784Y-72649626D01*
X8482098Y-72749475D01*
X8540117Y-72833790D01*
X8571736Y-72880321D01*
X8611020Y-72940800D01*
X8637912Y-72985643D01*
X8647883Y-73007545D01*
X8643649Y-73016955D01*
X8617721Y-73050969D01*
X8572070Y-73103405D01*
X8511186Y-73169699D01*
X8439561Y-73245287D01*
X8361683Y-73325603D01*
X8282045Y-73406087D01*
X8205135Y-73482171D01*
X8135445Y-73549293D01*
X8077464Y-73602888D01*
X8035684Y-73638392D01*
X8014593Y-73651241D01*
X8010581Y-73650500D01*
X7977920Y-73635207D01*
X7921412Y-73602538D01*
X7846163Y-73555650D01*
X7757275Y-73497699D01*
X7659854Y-73431843D01*
X7632982Y-73413373D01*
X7538422Y-73348518D01*
X7454827Y-73291391D01*
X7387084Y-73245322D01*
X7340085Y-73213641D01*
X7318726Y-73199676D01*
X7317812Y-73199332D01*
X7291678Y-73203454D01*
X7238740Y-73219193D01*
X7165647Y-73243996D01*
X7079052Y-73275311D01*
X6985608Y-73310583D01*
X6891965Y-73347260D01*
X6804777Y-73382788D01*
X6730694Y-73414614D01*
X6676371Y-73440184D01*
X6648456Y-73456947D01*
X6646724Y-73458626D01*
X6637956Y-73470628D01*
X6629115Y-73490897D01*
X6619292Y-73523471D01*
X6607583Y-73572384D01*
X6593080Y-73641673D01*
X6574876Y-73735375D01*
X6552066Y-73857524D01*
X6523741Y-74012158D01*
X6517780Y-74044230D01*
X6499352Y-74136107D01*
X6481892Y-74213393D01*
X6467133Y-74268764D01*
X6456810Y-74294895D01*
X6448197Y-74299267D01*
X6406826Y-74306555D01*
X6338241Y-74312331D01*
X6248868Y-74316590D01*
X6145135Y-74319328D01*
X6033464Y-74320538D01*
X5920287Y-74320218D01*
X5812026Y-74318364D01*
X5715108Y-74314970D01*
X5635959Y-74310033D01*
X5581006Y-74303548D01*
X5556674Y-74295511D01*
X5553079Y-74287304D01*
X5541748Y-74246481D01*
X5525722Y-74177476D01*
X5506195Y-74085797D01*
X5484361Y-73976950D01*
X5461419Y-73856442D01*
X5449159Y-73790643D01*
X5427900Y-73677865D01*
X5409287Y-73580793D01*
X5394328Y-73504618D01*
X5384036Y-73454531D01*
X5379422Y-73435724D01*
X5378471Y-73435017D01*
X5354310Y-73423039D01*
X5303694Y-73400206D01*
X5233339Y-73369370D01*
X5149958Y-73333387D01*
X5060270Y-73295110D01*
X4970989Y-73257391D01*
X4888832Y-73223086D01*
X4820513Y-73195051D01*
X4772748Y-73176136D01*
X4752253Y-73169197D01*
X4745043Y-73172258D01*
X4710728Y-73192628D01*
X4652970Y-73229578D01*
X4576299Y-73280140D01*
X4485248Y-73341343D01*
X4384350Y-73410219D01*
X4329093Y-73448006D01*
X4232215Y-73513218D01*
X4147193Y-73569129D01*
X4078662Y-73612760D01*
X4031261Y-73641123D01*
X4009622Y-73651241D01*
X3997887Y-73644210D01*
X3962818Y-73614803D01*
X3909745Y-73566559D01*
X3843164Y-73503907D01*
X3767574Y-73431276D01*
X3687472Y-73353092D01*
X3607354Y-73273786D01*
X3531718Y-73197787D01*
X3465062Y-73129522D01*
X3411882Y-73073420D01*
X3376676Y-73033910D01*
X3363942Y-73015420D01*
X3368893Y-73005158D01*
X3391857Y-72967470D01*
X3430937Y-72906652D01*
X3483272Y-72827087D01*
X3545996Y-72733157D01*
X3616246Y-72629245D01*
X3868551Y-72258206D01*
X3741053Y-71948920D01*
X3613555Y-71639635D01*
X3168931Y-71555814D01*
X2724307Y-71471994D01*
X2724307Y-70546546D01*
X3168931Y-70462725D01*
X3613555Y-70378905D01*
X3868551Y-69760333D01*
X3616246Y-69389293D01*
X3566506Y-69315855D01*
X3501218Y-69218501D01*
X3445454Y-69134213D01*
X3402078Y-69067369D01*
X3373953Y-69022346D01*
X3363942Y-69003521D01*
X3371060Y-68991961D01*
X3400894Y-68957404D01*
X3449852Y-68905106D01*
X3513440Y-68839500D01*
X3587163Y-68765017D01*
X3666525Y-68686086D01*
X3747031Y-68607144D01*
X3824185Y-68532617D01*
X3893493Y-68466937D01*
X3950457Y-68414537D01*
X3990583Y-68379847D01*
X4009377Y-68367299D01*
X4017451Y-68370218D01*
X4053469Y-68390429D01*
X4112744Y-68427337D01*
X4190630Y-68477950D01*
X4282481Y-68539275D01*
X4383650Y-68608322D01*
X4438826Y-68646213D01*
X4534884Y-68711394D01*
X4618717Y-68767277D01*
X4685778Y-68810883D01*
X4731519Y-68839231D01*
X4751396Y-68849343D01*
X4752497Y-68849177D01*
X4777694Y-68840257D01*
X4829146Y-68819794D01*
X4900135Y-68790641D01*
X4983935Y-68755647D01*
X5073828Y-68717668D01*
X5163091Y-68679556D01*
X5245003Y-68644161D01*
X5312843Y-68614338D01*
X5359890Y-68592939D01*
X5379422Y-68582816D01*
X5381155Y-68576826D01*
X5388969Y-68540434D01*
X5401916Y-68475573D01*
X5418980Y-68387435D01*
X5439151Y-68281213D01*
X5461418Y-68162098D01*
X5473223Y-68099317D01*
X5495748Y-67984088D01*
X5516550Y-67883338D01*
X5534434Y-67802574D01*
X5548208Y-67747302D01*
X5556674Y-67723029D01*
X5565066Y-67718669D01*
X5606072Y-67711437D01*
X5674368Y-67705754D01*
X5763529Y-67701618D01*
X5867128Y-67699023D01*
X5978740Y-67697964D01*
X6091938Y-67698439D01*
G37*
D14*
%TO.C,G\u002A\u002A\u002A*%
G36*
X7080449Y-82937633D02*
G01*
X7080449Y-83162126D01*
X5889824Y-83151334D01*
X4699199Y-83140544D01*
X4686895Y-82926842D01*
X4674592Y-82713140D01*
X5877520Y-82713140D01*
X7080449Y-82713140D01*
X7080449Y-82937633D01*
G37*
G36*
X7080449Y-76688781D02*
G01*
X7080449Y-76892307D01*
X5879647Y-76892307D01*
X4678846Y-76892307D01*
X4678846Y-76688781D01*
X4678846Y-76485256D01*
X5879647Y-76485256D01*
X7080449Y-76485256D01*
X7080449Y-76688781D01*
G37*
G36*
X7080449Y-84442493D02*
G01*
X7080449Y-85277563D01*
X6897276Y-85277563D01*
X6714102Y-85277563D01*
X6714102Y-84666986D01*
X6714102Y-84056411D01*
X5694347Y-84056410D01*
X4674592Y-84056410D01*
X4686895Y-83842708D01*
X4699199Y-83629006D01*
X5889824Y-83618214D01*
X7080449Y-83607423D01*
X7080449Y-84442493D01*
G37*
G36*
X7935256Y-80799999D02*
G01*
X7935256Y-85806730D01*
X5900000Y-85806730D01*
X3864744Y-85806730D01*
X3864744Y-80799999D01*
X3864744Y-76118910D01*
X4190385Y-76118910D01*
X4190385Y-80799999D01*
X4190385Y-85481089D01*
X5900000Y-85481089D01*
X7609615Y-85481089D01*
X7609615Y-80799999D01*
X7609615Y-76118910D01*
X5900000Y-76118911D01*
X4190385Y-76118910D01*
X3864744Y-76118910D01*
X3864744Y-75793269D01*
X5900000Y-75793270D01*
X7935256Y-75793269D01*
X7935256Y-80799999D01*
G37*
G36*
X7080449Y-79943798D02*
G01*
X7080449Y-80147160D01*
X6174760Y-80158115D01*
X5269070Y-80169070D01*
X6176553Y-80494712D01*
X7084035Y-80820352D01*
X7072066Y-81003324D01*
X7060096Y-81186297D01*
X6205288Y-81491786D01*
X5350480Y-81797275D01*
X6215465Y-81808261D01*
X7080449Y-81819247D01*
X7080449Y-82021963D01*
X7080449Y-82224679D01*
X5877864Y-82224679D01*
X4675280Y-82224679D01*
X4687239Y-81934682D01*
X4699199Y-81644685D01*
X5604327Y-81335756D01*
X5770342Y-81278428D01*
X6005391Y-81194741D01*
X6204050Y-81120921D01*
X6356098Y-81060910D01*
X6451317Y-81018653D01*
X6479487Y-80998091D01*
X6472563Y-80993866D01*
X6404453Y-80964795D01*
X6274926Y-80914961D01*
X6095739Y-80848730D01*
X5878650Y-80770472D01*
X5635417Y-80684553D01*
X5561302Y-80658612D01*
X5320314Y-80574074D01*
X5105976Y-80498605D01*
X4930842Y-80436644D01*
X4807464Y-80392629D01*
X4748398Y-80370996D01*
X4714410Y-80349381D01*
X4691736Y-80300179D01*
X4683906Y-80207328D01*
X4687340Y-80052130D01*
X4699199Y-79762019D01*
X5889824Y-79751227D01*
X7080449Y-79740437D01*
X7080449Y-79943798D01*
G37*
G36*
X5872863Y-77380769D02*
G01*
X5879647Y-77380769D01*
X7080449Y-77380769D01*
X7080221Y-77981169D01*
X7079856Y-78056976D01*
X7075002Y-78280939D01*
X7065391Y-78482226D01*
X7052155Y-78641263D01*
X7036426Y-78738476D01*
X6967808Y-78893307D01*
X6827896Y-79072873D01*
X6643846Y-79227347D01*
X6435545Y-79336927D01*
X6431867Y-79338309D01*
X6301093Y-79380894D01*
X6173389Y-79404635D01*
X6020768Y-79412761D01*
X5815241Y-79408500D01*
X5763946Y-79406103D01*
X5472917Y-79371508D01*
X5240885Y-79299447D01*
X5053565Y-79183858D01*
X4896672Y-79018676D01*
X4860953Y-78968686D01*
X4788094Y-78834368D01*
X4736192Y-78675093D01*
X4702508Y-78476901D01*
X4684305Y-78225833D01*
X4678846Y-77907932D01*
X4678846Y-77787821D01*
X5045192Y-77787821D01*
X5046086Y-78123637D01*
X5047446Y-78201303D01*
X5078003Y-78475761D01*
X5152085Y-78685822D01*
X5274174Y-78837614D01*
X5448751Y-78937265D01*
X5680297Y-78990903D01*
X5754802Y-78998689D01*
X6048757Y-78995660D01*
X6299476Y-78935882D01*
X6499760Y-78821861D01*
X6642407Y-78656105D01*
X6665684Y-78601625D01*
X6698244Y-78476307D01*
X6725412Y-78319213D01*
X6744797Y-78152607D01*
X6754008Y-77998752D01*
X6750657Y-77879911D01*
X6732351Y-77818348D01*
X6728274Y-77816271D01*
X6663644Y-77807232D01*
X6533075Y-77799417D01*
X6349281Y-77793275D01*
X6124973Y-77789260D01*
X5872863Y-77787820D01*
X5045192Y-77787821D01*
X4678846Y-77787821D01*
X4678846Y-77380769D01*
X5872863Y-77380769D01*
G37*
D12*
%TO.C,J4*%
X39480000Y-66965000D02*
X39480000Y-73435000D01*
X42650000Y-66965000D02*
X39480000Y-66965000D01*
X42650000Y-66965000D02*
X42650000Y-73435000D01*
X42650000Y-73435000D02*
X39480000Y-73435000D01*
%TD*%
%LPC*%
D15*
%TO.C,J13*%
X6000000Y-63000000D03*
X6000000Y-94000000D03*
X37000000Y-63000000D03*
X37000000Y-94000000D03*
%TD*%
D16*
%TO.C,J2*%
X10075000Y-59000000D03*
D17*
X12615000Y-59000000D03*
X15155000Y-59000000D03*
X17695000Y-59000000D03*
X20235000Y-59000000D03*
X22775000Y-59000000D03*
X25315000Y-59000000D03*
X27855000Y-59000000D03*
X30395000Y-59000000D03*
X32935000Y-59000000D03*
%TD*%
D16*
%TO.C,J3*%
X34970000Y-86840000D03*
X32430000Y-86840000D03*
X34970000Y-84300000D03*
X32430000Y-84300000D03*
X34970000Y-81760000D03*
X32430000Y-81760000D03*
%TD*%
D18*
%TO.C,J1*%
X13000000Y-95900500D03*
D19*
X18000000Y-95900500D03*
%TD*%
D16*
%TO.C,J10*%
X35600000Y-76100000D03*
%TD*%
%TO.C,J7*%
X12220000Y-76060000D03*
D17*
X12220000Y-78600000D03*
X12220000Y-81140000D03*
%TD*%
D16*
%TO.C,J11*%
X35600000Y-78500000D03*
%TD*%
%TO.C,J12*%
X23090000Y-98600000D03*
D17*
X25630000Y-98600000D03*
X28170000Y-98600000D03*
X30710000Y-98600000D03*
%TD*%
D16*
%TO.C,J6*%
X17300000Y-76060000D03*
D17*
X17300000Y-78600000D03*
X17300000Y-81140000D03*
%TD*%
D20*
%TO.C,J9*%
X41550000Y-83375000D03*
D21*
X38550000Y-81425000D03*
X38550000Y-76975000D03*
D20*
X41550000Y-75025000D03*
%TD*%
D16*
%TO.C,J8*%
X9680000Y-76060000D03*
D17*
X9680000Y-78600000D03*
X9680000Y-81140000D03*
%TD*%
D16*
%TO.C,J5*%
X14760000Y-76060000D03*
D17*
X14760000Y-78600000D03*
X14760000Y-81140000D03*
%TD*%
D22*
%TO.C,U2*%
X19550000Y-75637500D03*
X20200000Y-75637500D03*
X20850000Y-75637500D03*
X21500000Y-75637500D03*
X22150000Y-75637500D03*
X22800000Y-75637500D03*
X23450000Y-75637500D03*
X23450000Y-81362500D03*
X22800000Y-81362500D03*
X22150000Y-81362500D03*
X21500000Y-81362500D03*
X20850000Y-81362500D03*
X20200000Y-81362500D03*
X19550000Y-81362500D03*
%TD*%
D23*
%TO.C,C16*%
X21637500Y-83900000D03*
X19562500Y-83900000D03*
%TD*%
D24*
%TO.C,J4*%
X40430000Y-67660000D03*
D25*
X41700001Y-67660000D03*
X40430000Y-68930001D03*
X41700000Y-68930000D03*
X40430000Y-70200000D03*
X41700000Y-70200000D03*
X40430000Y-71470000D03*
X41700000Y-71470000D03*
X40430000Y-72739999D03*
X41700000Y-72740000D03*
%TD*%
%LPD*%
M02*
