%TF.GenerationSoftware,KiCad,Pcbnew,9.0.7*%
%TF.CreationDate,2026-03-13T13:39:15-04:00*%
%TF.ProjectId,Mechaduino-Hardware-KiCad,4d656368-6164-4756-996e-6f2d48617264,rev?*%
%TF.SameCoordinates,Original*%
%TF.FileFunction,Legend,Top*%
%TF.FilePolarity,Positive*%
%FSLAX46Y46*%
G04 Gerber Fmt 4.6, Leading zero omitted, Abs format (unit mm)*
G04 Created by KiCad (PCBNEW 9.0.7) date 2026-03-13 13:39:15*
%MOMM*%
%LPD*%
G01*
G04 APERTURE LIST*
G04 Aperture macros list*
%AMRoundRect*
0 Rectangle with rounded corners*
0 $1 Rounding radius*
0 $2 $3 $4 $5 $6 $7 $8 $9 X,Y pos of 4 corners*
0 Add a 4 corners polygon primitive as box body*
4,1,4,$2,$3,$4,$5,$6,$7,$8,$9,$2,$3,0*
0 Add four circle primitives for the rounded corners*
1,1,$1+$1,$2,$3*
1,1,$1+$1,$4,$5*
1,1,$1+$1,$6,$7*
1,1,$1+$1,$8,$9*
0 Add four rect primitives between the rounded corners*
20,1,$1+$1,$2,$3,$4,$5,0*
20,1,$1+$1,$4,$5,$6,$7,0*
20,1,$1+$1,$6,$7,$8,$9,0*
20,1,$1+$1,$8,$9,$2,$3,0*%
G04 Aperture macros list end*
%ADD10C,0.160000*%
%ADD11C,0.150000*%
%ADD12C,0.300000*%
%ADD13C,0.120000*%
%ADD14C,0.100000*%
%ADD15RoundRect,0.135000X-0.135000X-0.185000X0.135000X-0.185000X0.135000X0.185000X-0.135000X0.185000X0*%
%ADD16RoundRect,0.100000X-0.100000X0.675000X-0.100000X-0.675000X0.100000X-0.675000X0.100000X0.675000X0*%
%ADD17R,3.000000X3.000000*%
%ADD18C,3.700000*%
%ADD19RoundRect,0.140000X-0.140000X-0.170000X0.140000X-0.170000X0.140000X0.170000X-0.140000X0.170000X0*%
%ADD20RoundRect,0.135000X-0.226274X-0.035355X-0.035355X-0.226274X0.226274X0.035355X0.035355X0.226274X0*%
%ADD21RoundRect,0.250000X0.625000X-0.312500X0.625000X0.312500X-0.625000X0.312500X-0.625000X-0.312500X0*%
%ADD22C,1.700000*%
%ADD23O,1.700000X1.700000*%
%ADD24RoundRect,0.225000X-0.250000X0.225000X-0.250000X-0.225000X0.250000X-0.225000X0.250000X0.225000X0*%
%ADD25RoundRect,0.135000X0.135000X0.185000X-0.135000X0.185000X-0.135000X-0.185000X0.135000X-0.185000X0*%
%ADD26R,2.600000X2.600000*%
%ADD27C,2.600000*%
%ADD28RoundRect,0.140000X-0.170000X0.140000X-0.170000X-0.140000X0.170000X-0.140000X0.170000X0.140000X0*%
%ADD29R,1.050000X0.650000*%
%ADD30RoundRect,0.250000X-0.300000X-0.300000X0.300000X-0.300000X0.300000X0.300000X-0.300000X0.300000X0*%
%ADD31RoundRect,0.150000X0.150000X-0.512500X0.150000X0.512500X-0.150000X0.512500X-0.150000X-0.512500X0*%
%ADD32R,0.450000X0.700000*%
%ADD33RoundRect,0.225000X-0.225000X-0.250000X0.225000X-0.250000X0.225000X0.250000X-0.225000X0.250000X0*%
%ADD34RoundRect,0.250000X-0.625000X0.375000X-0.625000X-0.375000X0.625000X-0.375000X0.625000X0.375000X0*%
%ADD35RoundRect,0.135000X0.185000X-0.135000X0.185000X0.135000X-0.185000X0.135000X-0.185000X-0.135000X0*%
%ADD36RoundRect,0.140000X0.170000X-0.140000X0.170000X0.140000X-0.170000X0.140000X-0.170000X-0.140000X0*%
%ADD37RoundRect,0.075000X-0.521491X0.415425X0.415425X-0.521491X0.521491X-0.415425X-0.415425X0.521491X0*%
%ADD38RoundRect,0.075000X-0.521491X-0.415425X-0.415425X-0.521491X0.521491X0.415425X0.415425X0.521491X0*%
%ADD39RoundRect,0.150000X-0.512500X-0.150000X0.512500X-0.150000X0.512500X0.150000X-0.512500X0.150000X0*%
%ADD40RoundRect,0.140000X-0.219203X-0.021213X-0.021213X-0.219203X0.219203X0.021213X0.021213X0.219203X0*%
%ADD41RoundRect,0.218750X-0.218750X-0.256250X0.218750X-0.256250X0.218750X0.256250X-0.218750X0.256250X0*%
%ADD42RoundRect,0.218750X-0.335876X-0.026517X-0.026517X-0.335876X0.335876X0.026517X0.026517X0.335876X0*%
%ADD43RoundRect,0.140000X0.140000X0.170000X-0.140000X0.170000X-0.140000X-0.170000X0.140000X-0.170000X0*%
%ADD44R,1.350000X0.400000*%
%ADD45O,1.900000X1.000000*%
%ADD46R,1.900000X0.875000*%
%ADD47O,1.250000X1.050000*%
%ADD48R,1.900000X2.900000*%
%ADD49RoundRect,0.243750X0.456250X-0.243750X0.456250X0.243750X-0.456250X0.243750X-0.456250X-0.243750X0*%
%ADD50R,1.100000X0.600000*%
%ADD51RoundRect,0.250000X-1.500000X-0.550000X1.500000X-0.550000X1.500000X0.550000X-1.500000X0.550000X0*%
%ADD52C,1.000000*%
%ADD53O,1.000000X1.000000*%
G04 APERTURE END LIST*
D10*
X16966667Y-82869299D02*
X17585714Y-82869299D01*
X17585714Y-82869299D02*
X17252381Y-83250251D01*
X17252381Y-83250251D02*
X17395238Y-83250251D01*
X17395238Y-83250251D02*
X17490476Y-83297870D01*
X17490476Y-83297870D02*
X17538095Y-83345489D01*
X17538095Y-83345489D02*
X17585714Y-83440727D01*
X17585714Y-83440727D02*
X17585714Y-83678822D01*
X17585714Y-83678822D02*
X17538095Y-83774060D01*
X17538095Y-83774060D02*
X17490476Y-83821680D01*
X17490476Y-83821680D02*
X17395238Y-83869299D01*
X17395238Y-83869299D02*
X17109524Y-83869299D01*
X17109524Y-83869299D02*
X17014286Y-83821680D01*
X17014286Y-83821680D02*
X16966667Y-83774060D01*
X12421904Y-82916918D02*
X12326666Y-82869299D01*
X12326666Y-82869299D02*
X12183809Y-82869299D01*
X12183809Y-82869299D02*
X12040952Y-82916918D01*
X12040952Y-82916918D02*
X11945714Y-83012156D01*
X11945714Y-83012156D02*
X11898095Y-83107394D01*
X11898095Y-83107394D02*
X11850476Y-83297870D01*
X11850476Y-83297870D02*
X11850476Y-83440727D01*
X11850476Y-83440727D02*
X11898095Y-83631203D01*
X11898095Y-83631203D02*
X11945714Y-83726441D01*
X11945714Y-83726441D02*
X12040952Y-83821680D01*
X12040952Y-83821680D02*
X12183809Y-83869299D01*
X12183809Y-83869299D02*
X12279047Y-83869299D01*
X12279047Y-83869299D02*
X12421904Y-83821680D01*
X12421904Y-83821680D02*
X12469523Y-83774060D01*
X12469523Y-83774060D02*
X12469523Y-83440727D01*
X12469523Y-83440727D02*
X12279047Y-83440727D01*
D11*
X8955826Y-96337200D02*
X10098684Y-96337200D01*
X9527255Y-96908628D02*
X9527255Y-95765771D01*
D10*
X7166667Y-76469299D02*
X7166667Y-75469299D01*
X7166667Y-75469299D02*
X7500000Y-76183584D01*
X7500000Y-76183584D02*
X7833333Y-75469299D01*
X7833333Y-75469299D02*
X7833333Y-76469299D01*
X15038095Y-82869299D02*
X14561905Y-82869299D01*
X14561905Y-82869299D02*
X14514286Y-83345489D01*
X14514286Y-83345489D02*
X14561905Y-83297870D01*
X14561905Y-83297870D02*
X14657143Y-83250251D01*
X14657143Y-83250251D02*
X14895238Y-83250251D01*
X14895238Y-83250251D02*
X14990476Y-83297870D01*
X14990476Y-83297870D02*
X15038095Y-83345489D01*
X15038095Y-83345489D02*
X15085714Y-83440727D01*
X15085714Y-83440727D02*
X15085714Y-83678822D01*
X15085714Y-83678822D02*
X15038095Y-83774060D01*
X15038095Y-83774060D02*
X14990476Y-83821680D01*
X14990476Y-83821680D02*
X14895238Y-83869299D01*
X14895238Y-83869299D02*
X14657143Y-83869299D01*
X14657143Y-83869299D02*
X14561905Y-83821680D01*
X14561905Y-83821680D02*
X14514286Y-83774060D01*
D12*
X20154510Y-76085912D02*
X20154510Y-74585912D01*
X20154510Y-74585912D02*
X20654510Y-75657341D01*
X20654510Y-75657341D02*
X21154510Y-74585912D01*
X21154510Y-74585912D02*
X21154510Y-76085912D01*
X22440225Y-76014484D02*
X22297368Y-76085912D01*
X22297368Y-76085912D02*
X22011654Y-76085912D01*
X22011654Y-76085912D02*
X21868796Y-76014484D01*
X21868796Y-76014484D02*
X21797368Y-75871626D01*
X21797368Y-75871626D02*
X21797368Y-75300198D01*
X21797368Y-75300198D02*
X21868796Y-75157341D01*
X21868796Y-75157341D02*
X22011654Y-75085912D01*
X22011654Y-75085912D02*
X22297368Y-75085912D01*
X22297368Y-75085912D02*
X22440225Y-75157341D01*
X22440225Y-75157341D02*
X22511654Y-75300198D01*
X22511654Y-75300198D02*
X22511654Y-75443055D01*
X22511654Y-75443055D02*
X21797368Y-75585912D01*
X23797368Y-76014484D02*
X23654510Y-76085912D01*
X23654510Y-76085912D02*
X23368796Y-76085912D01*
X23368796Y-76085912D02*
X23225939Y-76014484D01*
X23225939Y-76014484D02*
X23154510Y-75943055D01*
X23154510Y-75943055D02*
X23083082Y-75800198D01*
X23083082Y-75800198D02*
X23083082Y-75371626D01*
X23083082Y-75371626D02*
X23154510Y-75228769D01*
X23154510Y-75228769D02*
X23225939Y-75157341D01*
X23225939Y-75157341D02*
X23368796Y-75085912D01*
X23368796Y-75085912D02*
X23654510Y-75085912D01*
X23654510Y-75085912D02*
X23797368Y-75157341D01*
X24440224Y-76085912D02*
X24440224Y-74585912D01*
X25083082Y-76085912D02*
X25083082Y-75300198D01*
X25083082Y-75300198D02*
X25011653Y-75157341D01*
X25011653Y-75157341D02*
X24868796Y-75085912D01*
X24868796Y-75085912D02*
X24654510Y-75085912D01*
X24654510Y-75085912D02*
X24511653Y-75157341D01*
X24511653Y-75157341D02*
X24440224Y-75228769D01*
X26440225Y-76085912D02*
X26440225Y-75300198D01*
X26440225Y-75300198D02*
X26368796Y-75157341D01*
X26368796Y-75157341D02*
X26225939Y-75085912D01*
X26225939Y-75085912D02*
X25940225Y-75085912D01*
X25940225Y-75085912D02*
X25797367Y-75157341D01*
X26440225Y-76014484D02*
X26297367Y-76085912D01*
X26297367Y-76085912D02*
X25940225Y-76085912D01*
X25940225Y-76085912D02*
X25797367Y-76014484D01*
X25797367Y-76014484D02*
X25725939Y-75871626D01*
X25725939Y-75871626D02*
X25725939Y-75728769D01*
X25725939Y-75728769D02*
X25797367Y-75585912D01*
X25797367Y-75585912D02*
X25940225Y-75514484D01*
X25940225Y-75514484D02*
X26297367Y-75514484D01*
X26297367Y-75514484D02*
X26440225Y-75443055D01*
X27797368Y-76085912D02*
X27797368Y-74585912D01*
X27797368Y-76014484D02*
X27654510Y-76085912D01*
X27654510Y-76085912D02*
X27368796Y-76085912D01*
X27368796Y-76085912D02*
X27225939Y-76014484D01*
X27225939Y-76014484D02*
X27154510Y-75943055D01*
X27154510Y-75943055D02*
X27083082Y-75800198D01*
X27083082Y-75800198D02*
X27083082Y-75371626D01*
X27083082Y-75371626D02*
X27154510Y-75228769D01*
X27154510Y-75228769D02*
X27225939Y-75157341D01*
X27225939Y-75157341D02*
X27368796Y-75085912D01*
X27368796Y-75085912D02*
X27654510Y-75085912D01*
X27654510Y-75085912D02*
X27797368Y-75157341D01*
X29154511Y-75085912D02*
X29154511Y-76085912D01*
X28511653Y-75085912D02*
X28511653Y-75871626D01*
X28511653Y-75871626D02*
X28583082Y-76014484D01*
X28583082Y-76014484D02*
X28725939Y-76085912D01*
X28725939Y-76085912D02*
X28940225Y-76085912D01*
X28940225Y-76085912D02*
X29083082Y-76014484D01*
X29083082Y-76014484D02*
X29154511Y-75943055D01*
X29868796Y-76085912D02*
X29868796Y-75085912D01*
X29868796Y-74585912D02*
X29797368Y-74657341D01*
X29797368Y-74657341D02*
X29868796Y-74728769D01*
X29868796Y-74728769D02*
X29940225Y-74657341D01*
X29940225Y-74657341D02*
X29868796Y-74585912D01*
X29868796Y-74585912D02*
X29868796Y-74728769D01*
X30583082Y-75085912D02*
X30583082Y-76085912D01*
X30583082Y-75228769D02*
X30654511Y-75157341D01*
X30654511Y-75157341D02*
X30797368Y-75085912D01*
X30797368Y-75085912D02*
X31011654Y-75085912D01*
X31011654Y-75085912D02*
X31154511Y-75157341D01*
X31154511Y-75157341D02*
X31225940Y-75300198D01*
X31225940Y-75300198D02*
X31225940Y-76085912D01*
X32154511Y-76085912D02*
X32011654Y-76014484D01*
X32011654Y-76014484D02*
X31940225Y-75943055D01*
X31940225Y-75943055D02*
X31868797Y-75800198D01*
X31868797Y-75800198D02*
X31868797Y-75371626D01*
X31868797Y-75371626D02*
X31940225Y-75228769D01*
X31940225Y-75228769D02*
X32011654Y-75157341D01*
X32011654Y-75157341D02*
X32154511Y-75085912D01*
X32154511Y-75085912D02*
X32368797Y-75085912D01*
X32368797Y-75085912D02*
X32511654Y-75157341D01*
X32511654Y-75157341D02*
X32583083Y-75228769D01*
X32583083Y-75228769D02*
X32654511Y-75371626D01*
X32654511Y-75371626D02*
X32654511Y-75800198D01*
X32654511Y-75800198D02*
X32583083Y-75943055D01*
X32583083Y-75943055D02*
X32511654Y-76014484D01*
X32511654Y-76014484D02*
X32368797Y-76085912D01*
X32368797Y-76085912D02*
X32154511Y-76085912D01*
X20083082Y-77143685D02*
X20154510Y-77072257D01*
X20154510Y-77072257D02*
X20297368Y-77000828D01*
X20297368Y-77000828D02*
X20654510Y-77000828D01*
X20654510Y-77000828D02*
X20797368Y-77072257D01*
X20797368Y-77072257D02*
X20868796Y-77143685D01*
X20868796Y-77143685D02*
X20940225Y-77286542D01*
X20940225Y-77286542D02*
X20940225Y-77429400D01*
X20940225Y-77429400D02*
X20868796Y-77643685D01*
X20868796Y-77643685D02*
X20011653Y-78500828D01*
X20011653Y-78500828D02*
X20940225Y-78500828D01*
X21868796Y-77000828D02*
X22011653Y-77000828D01*
X22011653Y-77000828D02*
X22154510Y-77072257D01*
X22154510Y-77072257D02*
X22225939Y-77143685D01*
X22225939Y-77143685D02*
X22297367Y-77286542D01*
X22297367Y-77286542D02*
X22368796Y-77572257D01*
X22368796Y-77572257D02*
X22368796Y-77929400D01*
X22368796Y-77929400D02*
X22297367Y-78215114D01*
X22297367Y-78215114D02*
X22225939Y-78357971D01*
X22225939Y-78357971D02*
X22154510Y-78429400D01*
X22154510Y-78429400D02*
X22011653Y-78500828D01*
X22011653Y-78500828D02*
X21868796Y-78500828D01*
X21868796Y-78500828D02*
X21725939Y-78429400D01*
X21725939Y-78429400D02*
X21654510Y-78357971D01*
X21654510Y-78357971D02*
X21583081Y-78215114D01*
X21583081Y-78215114D02*
X21511653Y-77929400D01*
X21511653Y-77929400D02*
X21511653Y-77572257D01*
X21511653Y-77572257D02*
X21583081Y-77286542D01*
X21583081Y-77286542D02*
X21654510Y-77143685D01*
X21654510Y-77143685D02*
X21725939Y-77072257D01*
X21725939Y-77072257D02*
X21868796Y-77000828D01*
X22940224Y-77143685D02*
X23011652Y-77072257D01*
X23011652Y-77072257D02*
X23154510Y-77000828D01*
X23154510Y-77000828D02*
X23511652Y-77000828D01*
X23511652Y-77000828D02*
X23654510Y-77072257D01*
X23654510Y-77072257D02*
X23725938Y-77143685D01*
X23725938Y-77143685D02*
X23797367Y-77286542D01*
X23797367Y-77286542D02*
X23797367Y-77429400D01*
X23797367Y-77429400D02*
X23725938Y-77643685D01*
X23725938Y-77643685D02*
X22868795Y-78500828D01*
X22868795Y-78500828D02*
X23797367Y-78500828D01*
X25083081Y-77000828D02*
X24797366Y-77000828D01*
X24797366Y-77000828D02*
X24654509Y-77072257D01*
X24654509Y-77072257D02*
X24583081Y-77143685D01*
X24583081Y-77143685D02*
X24440223Y-77357971D01*
X24440223Y-77357971D02*
X24368795Y-77643685D01*
X24368795Y-77643685D02*
X24368795Y-78215114D01*
X24368795Y-78215114D02*
X24440223Y-78357971D01*
X24440223Y-78357971D02*
X24511652Y-78429400D01*
X24511652Y-78429400D02*
X24654509Y-78500828D01*
X24654509Y-78500828D02*
X24940223Y-78500828D01*
X24940223Y-78500828D02*
X25083081Y-78429400D01*
X25083081Y-78429400D02*
X25154509Y-78357971D01*
X25154509Y-78357971D02*
X25225938Y-78215114D01*
X25225938Y-78215114D02*
X25225938Y-77857971D01*
X25225938Y-77857971D02*
X25154509Y-77715114D01*
X25154509Y-77715114D02*
X25083081Y-77643685D01*
X25083081Y-77643685D02*
X24940223Y-77572257D01*
X24940223Y-77572257D02*
X24654509Y-77572257D01*
X24654509Y-77572257D02*
X24511652Y-77643685D01*
X24511652Y-77643685D02*
X24440223Y-77715114D01*
X24440223Y-77715114D02*
X24368795Y-77857971D01*
X26868794Y-77500828D02*
X27225937Y-78500828D01*
X27225937Y-78500828D02*
X27583080Y-77500828D01*
X28940223Y-78500828D02*
X28083080Y-78500828D01*
X28511651Y-78500828D02*
X28511651Y-77000828D01*
X28511651Y-77000828D02*
X28368794Y-77215114D01*
X28368794Y-77215114D02*
X28225937Y-77357971D01*
X28225937Y-77357971D02*
X28083080Y-77429400D01*
X29583079Y-78357971D02*
X29654508Y-78429400D01*
X29654508Y-78429400D02*
X29583079Y-78500828D01*
X29583079Y-78500828D02*
X29511651Y-78429400D01*
X29511651Y-78429400D02*
X29583079Y-78357971D01*
X29583079Y-78357971D02*
X29583079Y-78500828D01*
X30225937Y-77143685D02*
X30297365Y-77072257D01*
X30297365Y-77072257D02*
X30440223Y-77000828D01*
X30440223Y-77000828D02*
X30797365Y-77000828D01*
X30797365Y-77000828D02*
X30940223Y-77072257D01*
X30940223Y-77072257D02*
X31011651Y-77143685D01*
X31011651Y-77143685D02*
X31083080Y-77286542D01*
X31083080Y-77286542D02*
X31083080Y-77429400D01*
X31083080Y-77429400D02*
X31011651Y-77643685D01*
X31011651Y-77643685D02*
X30154508Y-78500828D01*
X30154508Y-78500828D02*
X31083080Y-78500828D01*
D11*
X22957142Y-80354819D02*
X22623809Y-79878628D01*
X22385714Y-80354819D02*
X22385714Y-79354819D01*
X22385714Y-79354819D02*
X22766666Y-79354819D01*
X22766666Y-79354819D02*
X22861904Y-79402438D01*
X22861904Y-79402438D02*
X22909523Y-79450057D01*
X22909523Y-79450057D02*
X22957142Y-79545295D01*
X22957142Y-79545295D02*
X22957142Y-79688152D01*
X22957142Y-79688152D02*
X22909523Y-79783390D01*
X22909523Y-79783390D02*
X22861904Y-79831009D01*
X22861904Y-79831009D02*
X22766666Y-79878628D01*
X22766666Y-79878628D02*
X22385714Y-79878628D01*
X23909523Y-80354819D02*
X23338095Y-80354819D01*
X23623809Y-80354819D02*
X23623809Y-79354819D01*
X23623809Y-79354819D02*
X23528571Y-79497676D01*
X23528571Y-79497676D02*
X23433333Y-79592914D01*
X23433333Y-79592914D02*
X23338095Y-79640533D01*
X24766666Y-79688152D02*
X24766666Y-80354819D01*
X24528571Y-79307200D02*
X24290476Y-80021485D01*
X24290476Y-80021485D02*
X24909523Y-80021485D01*
X28954819Y-91161904D02*
X29764342Y-91161904D01*
X29764342Y-91161904D02*
X29859580Y-91114285D01*
X29859580Y-91114285D02*
X29907200Y-91066666D01*
X29907200Y-91066666D02*
X29954819Y-90971428D01*
X29954819Y-90971428D02*
X29954819Y-90780952D01*
X29954819Y-90780952D02*
X29907200Y-90685714D01*
X29907200Y-90685714D02*
X29859580Y-90638095D01*
X29859580Y-90638095D02*
X29764342Y-90590476D01*
X29764342Y-90590476D02*
X28954819Y-90590476D01*
X28954819Y-90209523D02*
X28954819Y-89590476D01*
X28954819Y-89590476D02*
X29335771Y-89923809D01*
X29335771Y-89923809D02*
X29335771Y-89780952D01*
X29335771Y-89780952D02*
X29383390Y-89685714D01*
X29383390Y-89685714D02*
X29431009Y-89638095D01*
X29431009Y-89638095D02*
X29526247Y-89590476D01*
X29526247Y-89590476D02*
X29764342Y-89590476D01*
X29764342Y-89590476D02*
X29859580Y-89638095D01*
X29859580Y-89638095D02*
X29907200Y-89685714D01*
X29907200Y-89685714D02*
X29954819Y-89780952D01*
X29954819Y-89780952D02*
X29954819Y-90066666D01*
X29954819Y-90066666D02*
X29907200Y-90161904D01*
X29907200Y-90161904D02*
X29859580Y-90209523D01*
X9504819Y-73666666D02*
X9028628Y-73999999D01*
X9504819Y-74238094D02*
X8504819Y-74238094D01*
X8504819Y-74238094D02*
X8504819Y-73857142D01*
X8504819Y-73857142D02*
X8552438Y-73761904D01*
X8552438Y-73761904D02*
X8600057Y-73714285D01*
X8600057Y-73714285D02*
X8695295Y-73666666D01*
X8695295Y-73666666D02*
X8838152Y-73666666D01*
X8838152Y-73666666D02*
X8933390Y-73714285D01*
X8933390Y-73714285D02*
X8981009Y-73761904D01*
X8981009Y-73761904D02*
X9028628Y-73857142D01*
X9028628Y-73857142D02*
X9028628Y-74238094D01*
X8838152Y-72809523D02*
X9504819Y-72809523D01*
X8457200Y-73047618D02*
X9171485Y-73285713D01*
X9171485Y-73285713D02*
X9171485Y-72666666D01*
X32333333Y-61959580D02*
X32285714Y-62007200D01*
X32285714Y-62007200D02*
X32142857Y-62054819D01*
X32142857Y-62054819D02*
X32047619Y-62054819D01*
X32047619Y-62054819D02*
X31904762Y-62007200D01*
X31904762Y-62007200D02*
X31809524Y-61911961D01*
X31809524Y-61911961D02*
X31761905Y-61816723D01*
X31761905Y-61816723D02*
X31714286Y-61626247D01*
X31714286Y-61626247D02*
X31714286Y-61483390D01*
X31714286Y-61483390D02*
X31761905Y-61292914D01*
X31761905Y-61292914D02*
X31809524Y-61197676D01*
X31809524Y-61197676D02*
X31904762Y-61102438D01*
X31904762Y-61102438D02*
X32047619Y-61054819D01*
X32047619Y-61054819D02*
X32142857Y-61054819D01*
X32142857Y-61054819D02*
X32285714Y-61102438D01*
X32285714Y-61102438D02*
X32333333Y-61150057D01*
X33285714Y-62054819D02*
X32714286Y-62054819D01*
X33000000Y-62054819D02*
X33000000Y-61054819D01*
X33000000Y-61054819D02*
X32904762Y-61197676D01*
X32904762Y-61197676D02*
X32809524Y-61292914D01*
X32809524Y-61292914D02*
X32714286Y-61340533D01*
X6833333Y-79554819D02*
X6500000Y-79078628D01*
X6261905Y-79554819D02*
X6261905Y-78554819D01*
X6261905Y-78554819D02*
X6642857Y-78554819D01*
X6642857Y-78554819D02*
X6738095Y-78602438D01*
X6738095Y-78602438D02*
X6785714Y-78650057D01*
X6785714Y-78650057D02*
X6833333Y-78745295D01*
X6833333Y-78745295D02*
X6833333Y-78888152D01*
X6833333Y-78888152D02*
X6785714Y-78983390D01*
X6785714Y-78983390D02*
X6738095Y-79031009D01*
X6738095Y-79031009D02*
X6642857Y-79078628D01*
X6642857Y-79078628D02*
X6261905Y-79078628D01*
X7738095Y-78554819D02*
X7261905Y-78554819D01*
X7261905Y-78554819D02*
X7214286Y-79031009D01*
X7214286Y-79031009D02*
X7261905Y-78983390D01*
X7261905Y-78983390D02*
X7357143Y-78935771D01*
X7357143Y-78935771D02*
X7595238Y-78935771D01*
X7595238Y-78935771D02*
X7690476Y-78983390D01*
X7690476Y-78983390D02*
X7738095Y-79031009D01*
X7738095Y-79031009D02*
X7785714Y-79126247D01*
X7785714Y-79126247D02*
X7785714Y-79364342D01*
X7785714Y-79364342D02*
X7738095Y-79459580D01*
X7738095Y-79459580D02*
X7690476Y-79507200D01*
X7690476Y-79507200D02*
X7595238Y-79554819D01*
X7595238Y-79554819D02*
X7357143Y-79554819D01*
X7357143Y-79554819D02*
X7261905Y-79507200D01*
X7261905Y-79507200D02*
X7214286Y-79459580D01*
X30160543Y-72203754D02*
X30261558Y-71631335D01*
X29756482Y-71799693D02*
X30463589Y-71092587D01*
X30463589Y-71092587D02*
X30732963Y-71361961D01*
X30732963Y-71361961D02*
X30766635Y-71462976D01*
X30766635Y-71462976D02*
X30766635Y-71530319D01*
X30766635Y-71530319D02*
X30732963Y-71631335D01*
X30732963Y-71631335D02*
X30631948Y-71732350D01*
X30631948Y-71732350D02*
X30530932Y-71766022D01*
X30530932Y-71766022D02*
X30463589Y-71766022D01*
X30463589Y-71766022D02*
X30362574Y-71732350D01*
X30362574Y-71732350D02*
X30093200Y-71462976D01*
X31103352Y-71732350D02*
X31574757Y-72203754D01*
X31574757Y-72203754D02*
X30564604Y-72607815D01*
X22434819Y-95042857D02*
X21958628Y-95376190D01*
X22434819Y-95614285D02*
X21434819Y-95614285D01*
X21434819Y-95614285D02*
X21434819Y-95233333D01*
X21434819Y-95233333D02*
X21482438Y-95138095D01*
X21482438Y-95138095D02*
X21530057Y-95090476D01*
X21530057Y-95090476D02*
X21625295Y-95042857D01*
X21625295Y-95042857D02*
X21768152Y-95042857D01*
X21768152Y-95042857D02*
X21863390Y-95090476D01*
X21863390Y-95090476D02*
X21911009Y-95138095D01*
X21911009Y-95138095D02*
X21958628Y-95233333D01*
X21958628Y-95233333D02*
X21958628Y-95614285D01*
X22434819Y-94090476D02*
X22434819Y-94661904D01*
X22434819Y-94376190D02*
X21434819Y-94376190D01*
X21434819Y-94376190D02*
X21577676Y-94471428D01*
X21577676Y-94471428D02*
X21672914Y-94566666D01*
X21672914Y-94566666D02*
X21720533Y-94661904D01*
X21434819Y-93757142D02*
X21434819Y-93138095D01*
X21434819Y-93138095D02*
X21815771Y-93471428D01*
X21815771Y-93471428D02*
X21815771Y-93328571D01*
X21815771Y-93328571D02*
X21863390Y-93233333D01*
X21863390Y-93233333D02*
X21911009Y-93185714D01*
X21911009Y-93185714D02*
X22006247Y-93138095D01*
X22006247Y-93138095D02*
X22244342Y-93138095D01*
X22244342Y-93138095D02*
X22339580Y-93185714D01*
X22339580Y-93185714D02*
X22387200Y-93233333D01*
X22387200Y-93233333D02*
X22434819Y-93328571D01*
X22434819Y-93328571D02*
X22434819Y-93614285D01*
X22434819Y-93614285D02*
X22387200Y-93709523D01*
X22387200Y-93709523D02*
X22339580Y-93757142D01*
X2959580Y-81866666D02*
X3007200Y-81914285D01*
X3007200Y-81914285D02*
X3054819Y-82057142D01*
X3054819Y-82057142D02*
X3054819Y-82152380D01*
X3054819Y-82152380D02*
X3007200Y-82295237D01*
X3007200Y-82295237D02*
X2911961Y-82390475D01*
X2911961Y-82390475D02*
X2816723Y-82438094D01*
X2816723Y-82438094D02*
X2626247Y-82485713D01*
X2626247Y-82485713D02*
X2483390Y-82485713D01*
X2483390Y-82485713D02*
X2292914Y-82438094D01*
X2292914Y-82438094D02*
X2197676Y-82390475D01*
X2197676Y-82390475D02*
X2102438Y-82295237D01*
X2102438Y-82295237D02*
X2054819Y-82152380D01*
X2054819Y-82152380D02*
X2054819Y-82057142D01*
X2054819Y-82057142D02*
X2102438Y-81914285D01*
X2102438Y-81914285D02*
X2150057Y-81866666D01*
X2054819Y-81009523D02*
X2054819Y-81199999D01*
X2054819Y-81199999D02*
X2102438Y-81295237D01*
X2102438Y-81295237D02*
X2150057Y-81342856D01*
X2150057Y-81342856D02*
X2292914Y-81438094D01*
X2292914Y-81438094D02*
X2483390Y-81485713D01*
X2483390Y-81485713D02*
X2864342Y-81485713D01*
X2864342Y-81485713D02*
X2959580Y-81438094D01*
X2959580Y-81438094D02*
X3007200Y-81390475D01*
X3007200Y-81390475D02*
X3054819Y-81295237D01*
X3054819Y-81295237D02*
X3054819Y-81104761D01*
X3054819Y-81104761D02*
X3007200Y-81009523D01*
X3007200Y-81009523D02*
X2959580Y-80961904D01*
X2959580Y-80961904D02*
X2864342Y-80914285D01*
X2864342Y-80914285D02*
X2626247Y-80914285D01*
X2626247Y-80914285D02*
X2531009Y-80961904D01*
X2531009Y-80961904D02*
X2483390Y-81009523D01*
X2483390Y-81009523D02*
X2435771Y-81104761D01*
X2435771Y-81104761D02*
X2435771Y-81295237D01*
X2435771Y-81295237D02*
X2483390Y-81390475D01*
X2483390Y-81390475D02*
X2531009Y-81438094D01*
X2531009Y-81438094D02*
X2626247Y-81485713D01*
X15154819Y-63304166D02*
X14678628Y-63637499D01*
X15154819Y-63875594D02*
X14154819Y-63875594D01*
X14154819Y-63875594D02*
X14154819Y-63494642D01*
X14154819Y-63494642D02*
X14202438Y-63399404D01*
X14202438Y-63399404D02*
X14250057Y-63351785D01*
X14250057Y-63351785D02*
X14345295Y-63304166D01*
X14345295Y-63304166D02*
X14488152Y-63304166D01*
X14488152Y-63304166D02*
X14583390Y-63351785D01*
X14583390Y-63351785D02*
X14631009Y-63399404D01*
X14631009Y-63399404D02*
X14678628Y-63494642D01*
X14678628Y-63494642D02*
X14678628Y-63875594D01*
X14250057Y-62923213D02*
X14202438Y-62875594D01*
X14202438Y-62875594D02*
X14154819Y-62780356D01*
X14154819Y-62780356D02*
X14154819Y-62542261D01*
X14154819Y-62542261D02*
X14202438Y-62447023D01*
X14202438Y-62447023D02*
X14250057Y-62399404D01*
X14250057Y-62399404D02*
X14345295Y-62351785D01*
X14345295Y-62351785D02*
X14440533Y-62351785D01*
X14440533Y-62351785D02*
X14583390Y-62399404D01*
X14583390Y-62399404D02*
X15154819Y-62970832D01*
X15154819Y-62970832D02*
X15154819Y-62351785D01*
X21359580Y-86042857D02*
X21407200Y-86090476D01*
X21407200Y-86090476D02*
X21454819Y-86233333D01*
X21454819Y-86233333D02*
X21454819Y-86328571D01*
X21454819Y-86328571D02*
X21407200Y-86471428D01*
X21407200Y-86471428D02*
X21311961Y-86566666D01*
X21311961Y-86566666D02*
X21216723Y-86614285D01*
X21216723Y-86614285D02*
X21026247Y-86661904D01*
X21026247Y-86661904D02*
X20883390Y-86661904D01*
X20883390Y-86661904D02*
X20692914Y-86614285D01*
X20692914Y-86614285D02*
X20597676Y-86566666D01*
X20597676Y-86566666D02*
X20502438Y-86471428D01*
X20502438Y-86471428D02*
X20454819Y-86328571D01*
X20454819Y-86328571D02*
X20454819Y-86233333D01*
X20454819Y-86233333D02*
X20502438Y-86090476D01*
X20502438Y-86090476D02*
X20550057Y-86042857D01*
X21454819Y-85090476D02*
X21454819Y-85661904D01*
X21454819Y-85376190D02*
X20454819Y-85376190D01*
X20454819Y-85376190D02*
X20597676Y-85471428D01*
X20597676Y-85471428D02*
X20692914Y-85566666D01*
X20692914Y-85566666D02*
X20740533Y-85661904D01*
X21454819Y-84614285D02*
X21454819Y-84423809D01*
X21454819Y-84423809D02*
X21407200Y-84328571D01*
X21407200Y-84328571D02*
X21359580Y-84280952D01*
X21359580Y-84280952D02*
X21216723Y-84185714D01*
X21216723Y-84185714D02*
X21026247Y-84138095D01*
X21026247Y-84138095D02*
X20645295Y-84138095D01*
X20645295Y-84138095D02*
X20550057Y-84185714D01*
X20550057Y-84185714D02*
X20502438Y-84233333D01*
X20502438Y-84233333D02*
X20454819Y-84328571D01*
X20454819Y-84328571D02*
X20454819Y-84519047D01*
X20454819Y-84519047D02*
X20502438Y-84614285D01*
X20502438Y-84614285D02*
X20550057Y-84661904D01*
X20550057Y-84661904D02*
X20645295Y-84709523D01*
X20645295Y-84709523D02*
X20883390Y-84709523D01*
X20883390Y-84709523D02*
X20978628Y-84661904D01*
X20978628Y-84661904D02*
X21026247Y-84614285D01*
X21026247Y-84614285D02*
X21073866Y-84519047D01*
X21073866Y-84519047D02*
X21073866Y-84328571D01*
X21073866Y-84328571D02*
X21026247Y-84233333D01*
X21026247Y-84233333D02*
X20978628Y-84185714D01*
X20978628Y-84185714D02*
X20883390Y-84138095D01*
X11454819Y-63242857D02*
X10978628Y-63576190D01*
X11454819Y-63814285D02*
X10454819Y-63814285D01*
X10454819Y-63814285D02*
X10454819Y-63433333D01*
X10454819Y-63433333D02*
X10502438Y-63338095D01*
X10502438Y-63338095D02*
X10550057Y-63290476D01*
X10550057Y-63290476D02*
X10645295Y-63242857D01*
X10645295Y-63242857D02*
X10788152Y-63242857D01*
X10788152Y-63242857D02*
X10883390Y-63290476D01*
X10883390Y-63290476D02*
X10931009Y-63338095D01*
X10931009Y-63338095D02*
X10978628Y-63433333D01*
X10978628Y-63433333D02*
X10978628Y-63814285D01*
X10550057Y-62861904D02*
X10502438Y-62814285D01*
X10502438Y-62814285D02*
X10454819Y-62719047D01*
X10454819Y-62719047D02*
X10454819Y-62480952D01*
X10454819Y-62480952D02*
X10502438Y-62385714D01*
X10502438Y-62385714D02*
X10550057Y-62338095D01*
X10550057Y-62338095D02*
X10645295Y-62290476D01*
X10645295Y-62290476D02*
X10740533Y-62290476D01*
X10740533Y-62290476D02*
X10883390Y-62338095D01*
X10883390Y-62338095D02*
X11454819Y-62909523D01*
X11454819Y-62909523D02*
X11454819Y-62290476D01*
X11454819Y-61338095D02*
X11454819Y-61909523D01*
X11454819Y-61623809D02*
X10454819Y-61623809D01*
X10454819Y-61623809D02*
X10597676Y-61719047D01*
X10597676Y-61719047D02*
X10692914Y-61814285D01*
X10692914Y-61814285D02*
X10740533Y-61909523D01*
X19724405Y-89504819D02*
X19724405Y-88504819D01*
X19724405Y-88504819D02*
X19962500Y-88504819D01*
X19962500Y-88504819D02*
X20105357Y-88552438D01*
X20105357Y-88552438D02*
X20200595Y-88647676D01*
X20200595Y-88647676D02*
X20248214Y-88742914D01*
X20248214Y-88742914D02*
X20295833Y-88933390D01*
X20295833Y-88933390D02*
X20295833Y-89076247D01*
X20295833Y-89076247D02*
X20248214Y-89266723D01*
X20248214Y-89266723D02*
X20200595Y-89361961D01*
X20200595Y-89361961D02*
X20105357Y-89457200D01*
X20105357Y-89457200D02*
X19962500Y-89504819D01*
X19962500Y-89504819D02*
X19724405Y-89504819D01*
X21248214Y-89504819D02*
X20676786Y-89504819D01*
X20962500Y-89504819D02*
X20962500Y-88504819D01*
X20962500Y-88504819D02*
X20867262Y-88647676D01*
X20867262Y-88647676D02*
X20772024Y-88742914D01*
X20772024Y-88742914D02*
X20676786Y-88790533D01*
X3394820Y-67416666D02*
X2918629Y-67749999D01*
X3394820Y-67988094D02*
X2394820Y-67988094D01*
X2394820Y-67988094D02*
X2394820Y-67607142D01*
X2394820Y-67607142D02*
X2442439Y-67511904D01*
X2442439Y-67511904D02*
X2490058Y-67464285D01*
X2490058Y-67464285D02*
X2585296Y-67416666D01*
X2585296Y-67416666D02*
X2728153Y-67416666D01*
X2728153Y-67416666D02*
X2823391Y-67464285D01*
X2823391Y-67464285D02*
X2871010Y-67511904D01*
X2871010Y-67511904D02*
X2918629Y-67607142D01*
X2918629Y-67607142D02*
X2918629Y-67988094D01*
X2394820Y-66559523D02*
X2394820Y-66749999D01*
X2394820Y-66749999D02*
X2442439Y-66845237D01*
X2442439Y-66845237D02*
X2490058Y-66892856D01*
X2490058Y-66892856D02*
X2632915Y-66988094D01*
X2632915Y-66988094D02*
X2823391Y-67035713D01*
X2823391Y-67035713D02*
X3204343Y-67035713D01*
X3204343Y-67035713D02*
X3299581Y-66988094D01*
X3299581Y-66988094D02*
X3347201Y-66940475D01*
X3347201Y-66940475D02*
X3394820Y-66845237D01*
X3394820Y-66845237D02*
X3394820Y-66654761D01*
X3394820Y-66654761D02*
X3347201Y-66559523D01*
X3347201Y-66559523D02*
X3299581Y-66511904D01*
X3299581Y-66511904D02*
X3204343Y-66464285D01*
X3204343Y-66464285D02*
X2966248Y-66464285D01*
X2966248Y-66464285D02*
X2871010Y-66511904D01*
X2871010Y-66511904D02*
X2823391Y-66559523D01*
X2823391Y-66559523D02*
X2775772Y-66654761D01*
X2775772Y-66654761D02*
X2775772Y-66845237D01*
X2775772Y-66845237D02*
X2823391Y-66940475D01*
X2823391Y-66940475D02*
X2871010Y-66988094D01*
X2871010Y-66988094D02*
X2966248Y-67035713D01*
X11458333Y-72259580D02*
X11410714Y-72307200D01*
X11410714Y-72307200D02*
X11267857Y-72354819D01*
X11267857Y-72354819D02*
X11172619Y-72354819D01*
X11172619Y-72354819D02*
X11029762Y-72307200D01*
X11029762Y-72307200D02*
X10934524Y-72211961D01*
X10934524Y-72211961D02*
X10886905Y-72116723D01*
X10886905Y-72116723D02*
X10839286Y-71926247D01*
X10839286Y-71926247D02*
X10839286Y-71783390D01*
X10839286Y-71783390D02*
X10886905Y-71592914D01*
X10886905Y-71592914D02*
X10934524Y-71497676D01*
X10934524Y-71497676D02*
X11029762Y-71402438D01*
X11029762Y-71402438D02*
X11172619Y-71354819D01*
X11172619Y-71354819D02*
X11267857Y-71354819D01*
X11267857Y-71354819D02*
X11410714Y-71402438D01*
X11410714Y-71402438D02*
X11458333Y-71450057D01*
X11791667Y-71354819D02*
X12458333Y-71354819D01*
X12458333Y-71354819D02*
X12029762Y-72354819D01*
X34066666Y-89531009D02*
X33733333Y-89531009D01*
X33733333Y-90054819D02*
X33733333Y-89054819D01*
X33733333Y-89054819D02*
X34209523Y-89054819D01*
X35114285Y-90054819D02*
X34542857Y-90054819D01*
X34828571Y-90054819D02*
X34828571Y-89054819D01*
X34828571Y-89054819D02*
X34733333Y-89197676D01*
X34733333Y-89197676D02*
X34638095Y-89292914D01*
X34638095Y-89292914D02*
X34542857Y-89340533D01*
X2714819Y-76192857D02*
X2238628Y-76526190D01*
X2714819Y-76764285D02*
X1714819Y-76764285D01*
X1714819Y-76764285D02*
X1714819Y-76383333D01*
X1714819Y-76383333D02*
X1762438Y-76288095D01*
X1762438Y-76288095D02*
X1810057Y-76240476D01*
X1810057Y-76240476D02*
X1905295Y-76192857D01*
X1905295Y-76192857D02*
X2048152Y-76192857D01*
X2048152Y-76192857D02*
X2143390Y-76240476D01*
X2143390Y-76240476D02*
X2191009Y-76288095D01*
X2191009Y-76288095D02*
X2238628Y-76383333D01*
X2238628Y-76383333D02*
X2238628Y-76764285D01*
X2714819Y-75240476D02*
X2714819Y-75811904D01*
X2714819Y-75526190D02*
X1714819Y-75526190D01*
X1714819Y-75526190D02*
X1857676Y-75621428D01*
X1857676Y-75621428D02*
X1952914Y-75716666D01*
X1952914Y-75716666D02*
X2000533Y-75811904D01*
X1714819Y-74383333D02*
X1714819Y-74573809D01*
X1714819Y-74573809D02*
X1762438Y-74669047D01*
X1762438Y-74669047D02*
X1810057Y-74716666D01*
X1810057Y-74716666D02*
X1952914Y-74811904D01*
X1952914Y-74811904D02*
X2143390Y-74859523D01*
X2143390Y-74859523D02*
X2524342Y-74859523D01*
X2524342Y-74859523D02*
X2619580Y-74811904D01*
X2619580Y-74811904D02*
X2667200Y-74764285D01*
X2667200Y-74764285D02*
X2714819Y-74669047D01*
X2714819Y-74669047D02*
X2714819Y-74478571D01*
X2714819Y-74478571D02*
X2667200Y-74383333D01*
X2667200Y-74383333D02*
X2619580Y-74335714D01*
X2619580Y-74335714D02*
X2524342Y-74288095D01*
X2524342Y-74288095D02*
X2286247Y-74288095D01*
X2286247Y-74288095D02*
X2191009Y-74335714D01*
X2191009Y-74335714D02*
X2143390Y-74383333D01*
X2143390Y-74383333D02*
X2095771Y-74478571D01*
X2095771Y-74478571D02*
X2095771Y-74669047D01*
X2095771Y-74669047D02*
X2143390Y-74764285D01*
X2143390Y-74764285D02*
X2191009Y-74811904D01*
X2191009Y-74811904D02*
X2286247Y-74859523D01*
X4259580Y-82442857D02*
X4307200Y-82490476D01*
X4307200Y-82490476D02*
X4354819Y-82633333D01*
X4354819Y-82633333D02*
X4354819Y-82728571D01*
X4354819Y-82728571D02*
X4307200Y-82871428D01*
X4307200Y-82871428D02*
X4211961Y-82966666D01*
X4211961Y-82966666D02*
X4116723Y-83014285D01*
X4116723Y-83014285D02*
X3926247Y-83061904D01*
X3926247Y-83061904D02*
X3783390Y-83061904D01*
X3783390Y-83061904D02*
X3592914Y-83014285D01*
X3592914Y-83014285D02*
X3497676Y-82966666D01*
X3497676Y-82966666D02*
X3402438Y-82871428D01*
X3402438Y-82871428D02*
X3354819Y-82728571D01*
X3354819Y-82728571D02*
X3354819Y-82633333D01*
X3354819Y-82633333D02*
X3402438Y-82490476D01*
X3402438Y-82490476D02*
X3450057Y-82442857D01*
X4354819Y-81490476D02*
X4354819Y-82061904D01*
X4354819Y-81776190D02*
X3354819Y-81776190D01*
X3354819Y-81776190D02*
X3497676Y-81871428D01*
X3497676Y-81871428D02*
X3592914Y-81966666D01*
X3592914Y-81966666D02*
X3640533Y-82061904D01*
X3354819Y-81157142D02*
X3354819Y-80538095D01*
X3354819Y-80538095D02*
X3735771Y-80871428D01*
X3735771Y-80871428D02*
X3735771Y-80728571D01*
X3735771Y-80728571D02*
X3783390Y-80633333D01*
X3783390Y-80633333D02*
X3831009Y-80585714D01*
X3831009Y-80585714D02*
X3926247Y-80538095D01*
X3926247Y-80538095D02*
X4164342Y-80538095D01*
X4164342Y-80538095D02*
X4259580Y-80585714D01*
X4259580Y-80585714D02*
X4307200Y-80633333D01*
X4307200Y-80633333D02*
X4354819Y-80728571D01*
X4354819Y-80728571D02*
X4354819Y-81014285D01*
X4354819Y-81014285D02*
X4307200Y-81109523D01*
X4307200Y-81109523D02*
X4259580Y-81157142D01*
X18759580Y-67166666D02*
X18807200Y-67214285D01*
X18807200Y-67214285D02*
X18854819Y-67357142D01*
X18854819Y-67357142D02*
X18854819Y-67452380D01*
X18854819Y-67452380D02*
X18807200Y-67595237D01*
X18807200Y-67595237D02*
X18711961Y-67690475D01*
X18711961Y-67690475D02*
X18616723Y-67738094D01*
X18616723Y-67738094D02*
X18426247Y-67785713D01*
X18426247Y-67785713D02*
X18283390Y-67785713D01*
X18283390Y-67785713D02*
X18092914Y-67738094D01*
X18092914Y-67738094D02*
X17997676Y-67690475D01*
X17997676Y-67690475D02*
X17902438Y-67595237D01*
X17902438Y-67595237D02*
X17854819Y-67452380D01*
X17854819Y-67452380D02*
X17854819Y-67357142D01*
X17854819Y-67357142D02*
X17902438Y-67214285D01*
X17902438Y-67214285D02*
X17950057Y-67166666D01*
X17854819Y-66261904D02*
X17854819Y-66738094D01*
X17854819Y-66738094D02*
X18331009Y-66785713D01*
X18331009Y-66785713D02*
X18283390Y-66738094D01*
X18283390Y-66738094D02*
X18235771Y-66642856D01*
X18235771Y-66642856D02*
X18235771Y-66404761D01*
X18235771Y-66404761D02*
X18283390Y-66309523D01*
X18283390Y-66309523D02*
X18331009Y-66261904D01*
X18331009Y-66261904D02*
X18426247Y-66214285D01*
X18426247Y-66214285D02*
X18664342Y-66214285D01*
X18664342Y-66214285D02*
X18759580Y-66261904D01*
X18759580Y-66261904D02*
X18807200Y-66309523D01*
X18807200Y-66309523D02*
X18854819Y-66404761D01*
X18854819Y-66404761D02*
X18854819Y-66642856D01*
X18854819Y-66642856D02*
X18807200Y-66738094D01*
X18807200Y-66738094D02*
X18759580Y-66785713D01*
X29383328Y-61939175D02*
X28810908Y-62511595D01*
X28810908Y-62511595D02*
X28777236Y-62612610D01*
X28777236Y-62612610D02*
X28777236Y-62679954D01*
X28777236Y-62679954D02*
X28810908Y-62780969D01*
X28810908Y-62780969D02*
X28945595Y-62915656D01*
X28945595Y-62915656D02*
X29046610Y-62949328D01*
X29046610Y-62949328D02*
X29113954Y-62949328D01*
X29113954Y-62949328D02*
X29214969Y-62915656D01*
X29214969Y-62915656D02*
X29787389Y-62343236D01*
X30191450Y-63218702D02*
X29720045Y-63690106D01*
X30292465Y-62780969D02*
X29619030Y-63117687D01*
X29619030Y-63117687D02*
X30056763Y-63555419D01*
X12354819Y-86561904D02*
X13164342Y-86561904D01*
X13164342Y-86561904D02*
X13259580Y-86514285D01*
X13259580Y-86514285D02*
X13307200Y-86466666D01*
X13307200Y-86466666D02*
X13354819Y-86371428D01*
X13354819Y-86371428D02*
X13354819Y-86180952D01*
X13354819Y-86180952D02*
X13307200Y-86085714D01*
X13307200Y-86085714D02*
X13259580Y-86038095D01*
X13259580Y-86038095D02*
X13164342Y-85990476D01*
X13164342Y-85990476D02*
X12354819Y-85990476D01*
X13354819Y-84990476D02*
X13354819Y-85561904D01*
X13354819Y-85276190D02*
X12354819Y-85276190D01*
X12354819Y-85276190D02*
X12497676Y-85371428D01*
X12497676Y-85371428D02*
X12592914Y-85466666D01*
X12592914Y-85466666D02*
X12640533Y-85561904D01*
X11057142Y-70554819D02*
X10723809Y-70078628D01*
X10485714Y-70554819D02*
X10485714Y-69554819D01*
X10485714Y-69554819D02*
X10866666Y-69554819D01*
X10866666Y-69554819D02*
X10961904Y-69602438D01*
X10961904Y-69602438D02*
X11009523Y-69650057D01*
X11009523Y-69650057D02*
X11057142Y-69745295D01*
X11057142Y-69745295D02*
X11057142Y-69888152D01*
X11057142Y-69888152D02*
X11009523Y-69983390D01*
X11009523Y-69983390D02*
X10961904Y-70031009D01*
X10961904Y-70031009D02*
X10866666Y-70078628D01*
X10866666Y-70078628D02*
X10485714Y-70078628D01*
X11438095Y-69650057D02*
X11485714Y-69602438D01*
X11485714Y-69602438D02*
X11580952Y-69554819D01*
X11580952Y-69554819D02*
X11819047Y-69554819D01*
X11819047Y-69554819D02*
X11914285Y-69602438D01*
X11914285Y-69602438D02*
X11961904Y-69650057D01*
X11961904Y-69650057D02*
X12009523Y-69745295D01*
X12009523Y-69745295D02*
X12009523Y-69840533D01*
X12009523Y-69840533D02*
X11961904Y-69983390D01*
X11961904Y-69983390D02*
X11390476Y-70554819D01*
X11390476Y-70554819D02*
X12009523Y-70554819D01*
X12628571Y-69554819D02*
X12723809Y-69554819D01*
X12723809Y-69554819D02*
X12819047Y-69602438D01*
X12819047Y-69602438D02*
X12866666Y-69650057D01*
X12866666Y-69650057D02*
X12914285Y-69745295D01*
X12914285Y-69745295D02*
X12961904Y-69935771D01*
X12961904Y-69935771D02*
X12961904Y-70173866D01*
X12961904Y-70173866D02*
X12914285Y-70364342D01*
X12914285Y-70364342D02*
X12866666Y-70459580D01*
X12866666Y-70459580D02*
X12819047Y-70507200D01*
X12819047Y-70507200D02*
X12723809Y-70554819D01*
X12723809Y-70554819D02*
X12628571Y-70554819D01*
X12628571Y-70554819D02*
X12533333Y-70507200D01*
X12533333Y-70507200D02*
X12485714Y-70459580D01*
X12485714Y-70459580D02*
X12438095Y-70364342D01*
X12438095Y-70364342D02*
X12390476Y-70173866D01*
X12390476Y-70173866D02*
X12390476Y-69935771D01*
X12390476Y-69935771D02*
X12438095Y-69745295D01*
X12438095Y-69745295D02*
X12485714Y-69650057D01*
X12485714Y-69650057D02*
X12533333Y-69602438D01*
X12533333Y-69602438D02*
X12628571Y-69554819D01*
X5594820Y-73616666D02*
X5118629Y-73949999D01*
X5594820Y-74188094D02*
X4594820Y-74188094D01*
X4594820Y-74188094D02*
X4594820Y-73807142D01*
X4594820Y-73807142D02*
X4642439Y-73711904D01*
X4642439Y-73711904D02*
X4690058Y-73664285D01*
X4690058Y-73664285D02*
X4785296Y-73616666D01*
X4785296Y-73616666D02*
X4928153Y-73616666D01*
X4928153Y-73616666D02*
X5023391Y-73664285D01*
X5023391Y-73664285D02*
X5071010Y-73711904D01*
X5071010Y-73711904D02*
X5118629Y-73807142D01*
X5118629Y-73807142D02*
X5118629Y-74188094D01*
X5594820Y-72664285D02*
X5594820Y-73235713D01*
X5594820Y-72949999D02*
X4594820Y-72949999D01*
X4594820Y-72949999D02*
X4737677Y-73045237D01*
X4737677Y-73045237D02*
X4832915Y-73140475D01*
X4832915Y-73140475D02*
X4880534Y-73235713D01*
X27257142Y-80354819D02*
X26923809Y-79878628D01*
X26685714Y-80354819D02*
X26685714Y-79354819D01*
X26685714Y-79354819D02*
X27066666Y-79354819D01*
X27066666Y-79354819D02*
X27161904Y-79402438D01*
X27161904Y-79402438D02*
X27209523Y-79450057D01*
X27209523Y-79450057D02*
X27257142Y-79545295D01*
X27257142Y-79545295D02*
X27257142Y-79688152D01*
X27257142Y-79688152D02*
X27209523Y-79783390D01*
X27209523Y-79783390D02*
X27161904Y-79831009D01*
X27161904Y-79831009D02*
X27066666Y-79878628D01*
X27066666Y-79878628D02*
X26685714Y-79878628D01*
X28209523Y-80354819D02*
X27638095Y-80354819D01*
X27923809Y-80354819D02*
X27923809Y-79354819D01*
X27923809Y-79354819D02*
X27828571Y-79497676D01*
X27828571Y-79497676D02*
X27733333Y-79592914D01*
X27733333Y-79592914D02*
X27638095Y-79640533D01*
X29114285Y-79354819D02*
X28638095Y-79354819D01*
X28638095Y-79354819D02*
X28590476Y-79831009D01*
X28590476Y-79831009D02*
X28638095Y-79783390D01*
X28638095Y-79783390D02*
X28733333Y-79735771D01*
X28733333Y-79735771D02*
X28971428Y-79735771D01*
X28971428Y-79735771D02*
X29066666Y-79783390D01*
X29066666Y-79783390D02*
X29114285Y-79831009D01*
X29114285Y-79831009D02*
X29161904Y-79926247D01*
X29161904Y-79926247D02*
X29161904Y-80164342D01*
X29161904Y-80164342D02*
X29114285Y-80259580D01*
X29114285Y-80259580D02*
X29066666Y-80307200D01*
X29066666Y-80307200D02*
X28971428Y-80354819D01*
X28971428Y-80354819D02*
X28733333Y-80354819D01*
X28733333Y-80354819D02*
X28638095Y-80307200D01*
X28638095Y-80307200D02*
X28590476Y-80259580D01*
X21333333Y-73559580D02*
X21285714Y-73607200D01*
X21285714Y-73607200D02*
X21142857Y-73654819D01*
X21142857Y-73654819D02*
X21047619Y-73654819D01*
X21047619Y-73654819D02*
X20904762Y-73607200D01*
X20904762Y-73607200D02*
X20809524Y-73511961D01*
X20809524Y-73511961D02*
X20761905Y-73416723D01*
X20761905Y-73416723D02*
X20714286Y-73226247D01*
X20714286Y-73226247D02*
X20714286Y-73083390D01*
X20714286Y-73083390D02*
X20761905Y-72892914D01*
X20761905Y-72892914D02*
X20809524Y-72797676D01*
X20809524Y-72797676D02*
X20904762Y-72702438D01*
X20904762Y-72702438D02*
X21047619Y-72654819D01*
X21047619Y-72654819D02*
X21142857Y-72654819D01*
X21142857Y-72654819D02*
X21285714Y-72702438D01*
X21285714Y-72702438D02*
X21333333Y-72750057D01*
X21666667Y-72654819D02*
X22285714Y-72654819D01*
X22285714Y-72654819D02*
X21952381Y-73035771D01*
X21952381Y-73035771D02*
X22095238Y-73035771D01*
X22095238Y-73035771D02*
X22190476Y-73083390D01*
X22190476Y-73083390D02*
X22238095Y-73131009D01*
X22238095Y-73131009D02*
X22285714Y-73226247D01*
X22285714Y-73226247D02*
X22285714Y-73464342D01*
X22285714Y-73464342D02*
X22238095Y-73559580D01*
X22238095Y-73559580D02*
X22190476Y-73607200D01*
X22190476Y-73607200D02*
X22095238Y-73654819D01*
X22095238Y-73654819D02*
X21809524Y-73654819D01*
X21809524Y-73654819D02*
X21714286Y-73607200D01*
X21714286Y-73607200D02*
X21666667Y-73559580D01*
X19654819Y-70166666D02*
X19654819Y-70642856D01*
X19654819Y-70642856D02*
X18654819Y-70642856D01*
X18750057Y-69880951D02*
X18702438Y-69833332D01*
X18702438Y-69833332D02*
X18654819Y-69738094D01*
X18654819Y-69738094D02*
X18654819Y-69499999D01*
X18654819Y-69499999D02*
X18702438Y-69404761D01*
X18702438Y-69404761D02*
X18750057Y-69357142D01*
X18750057Y-69357142D02*
X18845295Y-69309523D01*
X18845295Y-69309523D02*
X18940533Y-69309523D01*
X18940533Y-69309523D02*
X19083390Y-69357142D01*
X19083390Y-69357142D02*
X19654819Y-69928570D01*
X19654819Y-69928570D02*
X19654819Y-69309523D01*
X26334819Y-95042857D02*
X25858628Y-95376190D01*
X26334819Y-95614285D02*
X25334819Y-95614285D01*
X25334819Y-95614285D02*
X25334819Y-95233333D01*
X25334819Y-95233333D02*
X25382438Y-95138095D01*
X25382438Y-95138095D02*
X25430057Y-95090476D01*
X25430057Y-95090476D02*
X25525295Y-95042857D01*
X25525295Y-95042857D02*
X25668152Y-95042857D01*
X25668152Y-95042857D02*
X25763390Y-95090476D01*
X25763390Y-95090476D02*
X25811009Y-95138095D01*
X25811009Y-95138095D02*
X25858628Y-95233333D01*
X25858628Y-95233333D02*
X25858628Y-95614285D01*
X26334819Y-94090476D02*
X26334819Y-94661904D01*
X26334819Y-94376190D02*
X25334819Y-94376190D01*
X25334819Y-94376190D02*
X25477676Y-94471428D01*
X25477676Y-94471428D02*
X25572914Y-94566666D01*
X25572914Y-94566666D02*
X25620533Y-94661904D01*
X25430057Y-93709523D02*
X25382438Y-93661904D01*
X25382438Y-93661904D02*
X25334819Y-93566666D01*
X25334819Y-93566666D02*
X25334819Y-93328571D01*
X25334819Y-93328571D02*
X25382438Y-93233333D01*
X25382438Y-93233333D02*
X25430057Y-93185714D01*
X25430057Y-93185714D02*
X25525295Y-93138095D01*
X25525295Y-93138095D02*
X25620533Y-93138095D01*
X25620533Y-93138095D02*
X25763390Y-93185714D01*
X25763390Y-93185714D02*
X26334819Y-93757142D01*
X26334819Y-93757142D02*
X26334819Y-93138095D01*
X35460543Y-71803754D02*
X35123825Y-71467037D01*
X35123825Y-71467037D02*
X35830932Y-70759930D01*
X36066635Y-72409846D02*
X35662574Y-72005785D01*
X35864604Y-72207815D02*
X36571711Y-71500709D01*
X36571711Y-71500709D02*
X36403352Y-71534380D01*
X36403352Y-71534380D02*
X36268665Y-71534380D01*
X36268665Y-71534380D02*
X36167650Y-71500709D01*
X22159580Y-82442857D02*
X22207200Y-82490476D01*
X22207200Y-82490476D02*
X22254819Y-82633333D01*
X22254819Y-82633333D02*
X22254819Y-82728571D01*
X22254819Y-82728571D02*
X22207200Y-82871428D01*
X22207200Y-82871428D02*
X22111961Y-82966666D01*
X22111961Y-82966666D02*
X22016723Y-83014285D01*
X22016723Y-83014285D02*
X21826247Y-83061904D01*
X21826247Y-83061904D02*
X21683390Y-83061904D01*
X21683390Y-83061904D02*
X21492914Y-83014285D01*
X21492914Y-83014285D02*
X21397676Y-82966666D01*
X21397676Y-82966666D02*
X21302438Y-82871428D01*
X21302438Y-82871428D02*
X21254819Y-82728571D01*
X21254819Y-82728571D02*
X21254819Y-82633333D01*
X21254819Y-82633333D02*
X21302438Y-82490476D01*
X21302438Y-82490476D02*
X21350057Y-82442857D01*
X22254819Y-81490476D02*
X22254819Y-82061904D01*
X22254819Y-81776190D02*
X21254819Y-81776190D01*
X21254819Y-81776190D02*
X21397676Y-81871428D01*
X21397676Y-81871428D02*
X21492914Y-81966666D01*
X21492914Y-81966666D02*
X21540533Y-82061904D01*
X21588152Y-80633333D02*
X22254819Y-80633333D01*
X21207200Y-80871428D02*
X21921485Y-81109523D01*
X21921485Y-81109523D02*
X21921485Y-80490476D01*
X20753333Y-61959580D02*
X20705714Y-62007200D01*
X20705714Y-62007200D02*
X20562857Y-62054819D01*
X20562857Y-62054819D02*
X20467619Y-62054819D01*
X20467619Y-62054819D02*
X20324762Y-62007200D01*
X20324762Y-62007200D02*
X20229524Y-61911961D01*
X20229524Y-61911961D02*
X20181905Y-61816723D01*
X20181905Y-61816723D02*
X20134286Y-61626247D01*
X20134286Y-61626247D02*
X20134286Y-61483390D01*
X20134286Y-61483390D02*
X20181905Y-61292914D01*
X20181905Y-61292914D02*
X20229524Y-61197676D01*
X20229524Y-61197676D02*
X20324762Y-61102438D01*
X20324762Y-61102438D02*
X20467619Y-61054819D01*
X20467619Y-61054819D02*
X20562857Y-61054819D01*
X20562857Y-61054819D02*
X20705714Y-61102438D01*
X20705714Y-61102438D02*
X20753333Y-61150057D01*
X21610476Y-61388152D02*
X21610476Y-62054819D01*
X21372381Y-61007200D02*
X21134286Y-61721485D01*
X21134286Y-61721485D02*
X21753333Y-61721485D01*
X31060543Y-71303754D02*
X31161558Y-70731335D01*
X30656482Y-70899693D02*
X31363589Y-70192587D01*
X31363589Y-70192587D02*
X31632963Y-70461961D01*
X31632963Y-70461961D02*
X31666635Y-70562976D01*
X31666635Y-70562976D02*
X31666635Y-70630319D01*
X31666635Y-70630319D02*
X31632963Y-70731335D01*
X31632963Y-70731335D02*
X31531948Y-70832350D01*
X31531948Y-70832350D02*
X31430932Y-70866022D01*
X31430932Y-70866022D02*
X31363589Y-70866022D01*
X31363589Y-70866022D02*
X31262574Y-70832350D01*
X31262574Y-70832350D02*
X30993200Y-70562976D01*
X31868665Y-71303754D02*
X31834993Y-71202739D01*
X31834993Y-71202739D02*
X31834993Y-71135396D01*
X31834993Y-71135396D02*
X31868665Y-71034380D01*
X31868665Y-71034380D02*
X31902337Y-71000709D01*
X31902337Y-71000709D02*
X32003352Y-70967037D01*
X32003352Y-70967037D02*
X32070696Y-70967037D01*
X32070696Y-70967037D02*
X32171711Y-71000709D01*
X32171711Y-71000709D02*
X32306398Y-71135396D01*
X32306398Y-71135396D02*
X32340070Y-71236411D01*
X32340070Y-71236411D02*
X32340070Y-71303754D01*
X32340070Y-71303754D02*
X32306398Y-71404770D01*
X32306398Y-71404770D02*
X32272726Y-71438441D01*
X32272726Y-71438441D02*
X32171711Y-71472113D01*
X32171711Y-71472113D02*
X32104367Y-71472113D01*
X32104367Y-71472113D02*
X32003352Y-71438441D01*
X32003352Y-71438441D02*
X31868665Y-71303754D01*
X31868665Y-71303754D02*
X31767650Y-71270083D01*
X31767650Y-71270083D02*
X31700306Y-71270083D01*
X31700306Y-71270083D02*
X31599291Y-71303754D01*
X31599291Y-71303754D02*
X31464604Y-71438441D01*
X31464604Y-71438441D02*
X31430932Y-71539457D01*
X31430932Y-71539457D02*
X31430932Y-71606800D01*
X31430932Y-71606800D02*
X31464604Y-71707815D01*
X31464604Y-71707815D02*
X31599291Y-71842502D01*
X31599291Y-71842502D02*
X31700306Y-71876174D01*
X31700306Y-71876174D02*
X31767650Y-71876174D01*
X31767650Y-71876174D02*
X31868665Y-71842502D01*
X31868665Y-71842502D02*
X32003352Y-71707815D01*
X32003352Y-71707815D02*
X32037024Y-71606800D01*
X32037024Y-71606800D02*
X32037024Y-71539457D01*
X32037024Y-71539457D02*
X32003352Y-71438441D01*
X30059580Y-82442857D02*
X30107200Y-82490476D01*
X30107200Y-82490476D02*
X30154819Y-82633333D01*
X30154819Y-82633333D02*
X30154819Y-82728571D01*
X30154819Y-82728571D02*
X30107200Y-82871428D01*
X30107200Y-82871428D02*
X30011961Y-82966666D01*
X30011961Y-82966666D02*
X29916723Y-83014285D01*
X29916723Y-83014285D02*
X29726247Y-83061904D01*
X29726247Y-83061904D02*
X29583390Y-83061904D01*
X29583390Y-83061904D02*
X29392914Y-83014285D01*
X29392914Y-83014285D02*
X29297676Y-82966666D01*
X29297676Y-82966666D02*
X29202438Y-82871428D01*
X29202438Y-82871428D02*
X29154819Y-82728571D01*
X29154819Y-82728571D02*
X29154819Y-82633333D01*
X29154819Y-82633333D02*
X29202438Y-82490476D01*
X29202438Y-82490476D02*
X29250057Y-82442857D01*
X30154819Y-81490476D02*
X30154819Y-82061904D01*
X30154819Y-81776190D02*
X29154819Y-81776190D01*
X29154819Y-81776190D02*
X29297676Y-81871428D01*
X29297676Y-81871428D02*
X29392914Y-81966666D01*
X29392914Y-81966666D02*
X29440533Y-82061904D01*
X29154819Y-80585714D02*
X29154819Y-81061904D01*
X29154819Y-81061904D02*
X29631009Y-81109523D01*
X29631009Y-81109523D02*
X29583390Y-81061904D01*
X29583390Y-81061904D02*
X29535771Y-80966666D01*
X29535771Y-80966666D02*
X29535771Y-80728571D01*
X29535771Y-80728571D02*
X29583390Y-80633333D01*
X29583390Y-80633333D02*
X29631009Y-80585714D01*
X29631009Y-80585714D02*
X29726247Y-80538095D01*
X29726247Y-80538095D02*
X29964342Y-80538095D01*
X29964342Y-80538095D02*
X30059580Y-80585714D01*
X30059580Y-80585714D02*
X30107200Y-80633333D01*
X30107200Y-80633333D02*
X30154819Y-80728571D01*
X30154819Y-80728571D02*
X30154819Y-80966666D01*
X30154819Y-80966666D02*
X30107200Y-81061904D01*
X30107200Y-81061904D02*
X30059580Y-81109523D01*
X32333333Y-66659580D02*
X32285714Y-66707200D01*
X32285714Y-66707200D02*
X32142857Y-66754819D01*
X32142857Y-66754819D02*
X32047619Y-66754819D01*
X32047619Y-66754819D02*
X31904762Y-66707200D01*
X31904762Y-66707200D02*
X31809524Y-66611961D01*
X31809524Y-66611961D02*
X31761905Y-66516723D01*
X31761905Y-66516723D02*
X31714286Y-66326247D01*
X31714286Y-66326247D02*
X31714286Y-66183390D01*
X31714286Y-66183390D02*
X31761905Y-65992914D01*
X31761905Y-65992914D02*
X31809524Y-65897676D01*
X31809524Y-65897676D02*
X31904762Y-65802438D01*
X31904762Y-65802438D02*
X32047619Y-65754819D01*
X32047619Y-65754819D02*
X32142857Y-65754819D01*
X32142857Y-65754819D02*
X32285714Y-65802438D01*
X32285714Y-65802438D02*
X32333333Y-65850057D01*
X32714286Y-65850057D02*
X32761905Y-65802438D01*
X32761905Y-65802438D02*
X32857143Y-65754819D01*
X32857143Y-65754819D02*
X33095238Y-65754819D01*
X33095238Y-65754819D02*
X33190476Y-65802438D01*
X33190476Y-65802438D02*
X33238095Y-65850057D01*
X33238095Y-65850057D02*
X33285714Y-65945295D01*
X33285714Y-65945295D02*
X33285714Y-66040533D01*
X33285714Y-66040533D02*
X33238095Y-66183390D01*
X33238095Y-66183390D02*
X32666667Y-66754819D01*
X32666667Y-66754819D02*
X33285714Y-66754819D01*
X14459580Y-88566666D02*
X14507200Y-88614285D01*
X14507200Y-88614285D02*
X14554819Y-88757142D01*
X14554819Y-88757142D02*
X14554819Y-88852380D01*
X14554819Y-88852380D02*
X14507200Y-88995237D01*
X14507200Y-88995237D02*
X14411961Y-89090475D01*
X14411961Y-89090475D02*
X14316723Y-89138094D01*
X14316723Y-89138094D02*
X14126247Y-89185713D01*
X14126247Y-89185713D02*
X13983390Y-89185713D01*
X13983390Y-89185713D02*
X13792914Y-89138094D01*
X13792914Y-89138094D02*
X13697676Y-89090475D01*
X13697676Y-89090475D02*
X13602438Y-88995237D01*
X13602438Y-88995237D02*
X13554819Y-88852380D01*
X13554819Y-88852380D02*
X13554819Y-88757142D01*
X13554819Y-88757142D02*
X13602438Y-88614285D01*
X13602438Y-88614285D02*
X13650057Y-88566666D01*
X14554819Y-88090475D02*
X14554819Y-87899999D01*
X14554819Y-87899999D02*
X14507200Y-87804761D01*
X14507200Y-87804761D02*
X14459580Y-87757142D01*
X14459580Y-87757142D02*
X14316723Y-87661904D01*
X14316723Y-87661904D02*
X14126247Y-87614285D01*
X14126247Y-87614285D02*
X13745295Y-87614285D01*
X13745295Y-87614285D02*
X13650057Y-87661904D01*
X13650057Y-87661904D02*
X13602438Y-87709523D01*
X13602438Y-87709523D02*
X13554819Y-87804761D01*
X13554819Y-87804761D02*
X13554819Y-87995237D01*
X13554819Y-87995237D02*
X13602438Y-88090475D01*
X13602438Y-88090475D02*
X13650057Y-88138094D01*
X13650057Y-88138094D02*
X13745295Y-88185713D01*
X13745295Y-88185713D02*
X13983390Y-88185713D01*
X13983390Y-88185713D02*
X14078628Y-88138094D01*
X14078628Y-88138094D02*
X14126247Y-88090475D01*
X14126247Y-88090475D02*
X14173866Y-87995237D01*
X14173866Y-87995237D02*
X14173866Y-87804761D01*
X14173866Y-87804761D02*
X14126247Y-87709523D01*
X14126247Y-87709523D02*
X14078628Y-87661904D01*
X14078628Y-87661904D02*
X13983390Y-87614285D01*
X9344821Y-67430357D02*
X8868630Y-67763690D01*
X9344821Y-68001785D02*
X8344821Y-68001785D01*
X8344821Y-68001785D02*
X8344821Y-67620833D01*
X8344821Y-67620833D02*
X8392440Y-67525595D01*
X8392440Y-67525595D02*
X8440059Y-67477976D01*
X8440059Y-67477976D02*
X8535297Y-67430357D01*
X8535297Y-67430357D02*
X8678154Y-67430357D01*
X8678154Y-67430357D02*
X8773392Y-67477976D01*
X8773392Y-67477976D02*
X8821011Y-67525595D01*
X8821011Y-67525595D02*
X8868630Y-67620833D01*
X8868630Y-67620833D02*
X8868630Y-68001785D01*
X9344821Y-66477976D02*
X9344821Y-67049404D01*
X9344821Y-66763690D02*
X8344821Y-66763690D01*
X8344821Y-66763690D02*
X8487678Y-66858928D01*
X8487678Y-66858928D02*
X8582916Y-66954166D01*
X8582916Y-66954166D02*
X8630535Y-67049404D01*
X9344821Y-65525595D02*
X9344821Y-66097023D01*
X9344821Y-65811309D02*
X8344821Y-65811309D01*
X8344821Y-65811309D02*
X8487678Y-65906547D01*
X8487678Y-65906547D02*
X8582916Y-66001785D01*
X8582916Y-66001785D02*
X8630535Y-66097023D01*
X11458333Y-73859580D02*
X11410714Y-73907200D01*
X11410714Y-73907200D02*
X11267857Y-73954819D01*
X11267857Y-73954819D02*
X11172619Y-73954819D01*
X11172619Y-73954819D02*
X11029762Y-73907200D01*
X11029762Y-73907200D02*
X10934524Y-73811961D01*
X10934524Y-73811961D02*
X10886905Y-73716723D01*
X10886905Y-73716723D02*
X10839286Y-73526247D01*
X10839286Y-73526247D02*
X10839286Y-73383390D01*
X10839286Y-73383390D02*
X10886905Y-73192914D01*
X10886905Y-73192914D02*
X10934524Y-73097676D01*
X10934524Y-73097676D02*
X11029762Y-73002438D01*
X11029762Y-73002438D02*
X11172619Y-72954819D01*
X11172619Y-72954819D02*
X11267857Y-72954819D01*
X11267857Y-72954819D02*
X11410714Y-73002438D01*
X11410714Y-73002438D02*
X11458333Y-73050057D01*
X12029762Y-73383390D02*
X11934524Y-73335771D01*
X11934524Y-73335771D02*
X11886905Y-73288152D01*
X11886905Y-73288152D02*
X11839286Y-73192914D01*
X11839286Y-73192914D02*
X11839286Y-73145295D01*
X11839286Y-73145295D02*
X11886905Y-73050057D01*
X11886905Y-73050057D02*
X11934524Y-73002438D01*
X11934524Y-73002438D02*
X12029762Y-72954819D01*
X12029762Y-72954819D02*
X12220238Y-72954819D01*
X12220238Y-72954819D02*
X12315476Y-73002438D01*
X12315476Y-73002438D02*
X12363095Y-73050057D01*
X12363095Y-73050057D02*
X12410714Y-73145295D01*
X12410714Y-73145295D02*
X12410714Y-73192914D01*
X12410714Y-73192914D02*
X12363095Y-73288152D01*
X12363095Y-73288152D02*
X12315476Y-73335771D01*
X12315476Y-73335771D02*
X12220238Y-73383390D01*
X12220238Y-73383390D02*
X12029762Y-73383390D01*
X12029762Y-73383390D02*
X11934524Y-73431009D01*
X11934524Y-73431009D02*
X11886905Y-73478628D01*
X11886905Y-73478628D02*
X11839286Y-73573866D01*
X11839286Y-73573866D02*
X11839286Y-73764342D01*
X11839286Y-73764342D02*
X11886905Y-73859580D01*
X11886905Y-73859580D02*
X11934524Y-73907200D01*
X11934524Y-73907200D02*
X12029762Y-73954819D01*
X12029762Y-73954819D02*
X12220238Y-73954819D01*
X12220238Y-73954819D02*
X12315476Y-73907200D01*
X12315476Y-73907200D02*
X12363095Y-73859580D01*
X12363095Y-73859580D02*
X12410714Y-73764342D01*
X12410714Y-73764342D02*
X12410714Y-73573866D01*
X12410714Y-73573866D02*
X12363095Y-73478628D01*
X12363095Y-73478628D02*
X12315476Y-73431009D01*
X12315476Y-73431009D02*
X12220238Y-73383390D01*
X14833333Y-70554819D02*
X14500000Y-70078628D01*
X14261905Y-70554819D02*
X14261905Y-69554819D01*
X14261905Y-69554819D02*
X14642857Y-69554819D01*
X14642857Y-69554819D02*
X14738095Y-69602438D01*
X14738095Y-69602438D02*
X14785714Y-69650057D01*
X14785714Y-69650057D02*
X14833333Y-69745295D01*
X14833333Y-69745295D02*
X14833333Y-69888152D01*
X14833333Y-69888152D02*
X14785714Y-69983390D01*
X14785714Y-69983390D02*
X14738095Y-70031009D01*
X14738095Y-70031009D02*
X14642857Y-70078628D01*
X14642857Y-70078628D02*
X14261905Y-70078628D01*
X15166667Y-69554819D02*
X15785714Y-69554819D01*
X15785714Y-69554819D02*
X15452381Y-69935771D01*
X15452381Y-69935771D02*
X15595238Y-69935771D01*
X15595238Y-69935771D02*
X15690476Y-69983390D01*
X15690476Y-69983390D02*
X15738095Y-70031009D01*
X15738095Y-70031009D02*
X15785714Y-70126247D01*
X15785714Y-70126247D02*
X15785714Y-70364342D01*
X15785714Y-70364342D02*
X15738095Y-70459580D01*
X15738095Y-70459580D02*
X15690476Y-70507200D01*
X15690476Y-70507200D02*
X15595238Y-70554819D01*
X15595238Y-70554819D02*
X15309524Y-70554819D01*
X15309524Y-70554819D02*
X15214286Y-70507200D01*
X15214286Y-70507200D02*
X15166667Y-70459580D01*
X18603628Y-72976190D02*
X19079819Y-72976190D01*
X18079819Y-73309523D02*
X18603628Y-72976190D01*
X18603628Y-72976190D02*
X18079819Y-72642857D01*
X19079819Y-71785714D02*
X19079819Y-72357142D01*
X19079819Y-72071428D02*
X18079819Y-72071428D01*
X18079819Y-72071428D02*
X18222676Y-72166666D01*
X18222676Y-72166666D02*
X18317914Y-72261904D01*
X18317914Y-72261904D02*
X18365533Y-72357142D01*
X31857142Y-65359580D02*
X31809523Y-65407200D01*
X31809523Y-65407200D02*
X31666666Y-65454819D01*
X31666666Y-65454819D02*
X31571428Y-65454819D01*
X31571428Y-65454819D02*
X31428571Y-65407200D01*
X31428571Y-65407200D02*
X31333333Y-65311961D01*
X31333333Y-65311961D02*
X31285714Y-65216723D01*
X31285714Y-65216723D02*
X31238095Y-65026247D01*
X31238095Y-65026247D02*
X31238095Y-64883390D01*
X31238095Y-64883390D02*
X31285714Y-64692914D01*
X31285714Y-64692914D02*
X31333333Y-64597676D01*
X31333333Y-64597676D02*
X31428571Y-64502438D01*
X31428571Y-64502438D02*
X31571428Y-64454819D01*
X31571428Y-64454819D02*
X31666666Y-64454819D01*
X31666666Y-64454819D02*
X31809523Y-64502438D01*
X31809523Y-64502438D02*
X31857142Y-64550057D01*
X32809523Y-65454819D02*
X32238095Y-65454819D01*
X32523809Y-65454819D02*
X32523809Y-64454819D01*
X32523809Y-64454819D02*
X32428571Y-64597676D01*
X32428571Y-64597676D02*
X32333333Y-64692914D01*
X32333333Y-64692914D02*
X32238095Y-64740533D01*
X33761904Y-65454819D02*
X33190476Y-65454819D01*
X33476190Y-65454819D02*
X33476190Y-64454819D01*
X33476190Y-64454819D02*
X33380952Y-64597676D01*
X33380952Y-64597676D02*
X33285714Y-64692914D01*
X33285714Y-64692914D02*
X33190476Y-64740533D01*
X2059580Y-90142857D02*
X2107200Y-90190476D01*
X2107200Y-90190476D02*
X2154819Y-90333333D01*
X2154819Y-90333333D02*
X2154819Y-90428571D01*
X2154819Y-90428571D02*
X2107200Y-90571428D01*
X2107200Y-90571428D02*
X2011961Y-90666666D01*
X2011961Y-90666666D02*
X1916723Y-90714285D01*
X1916723Y-90714285D02*
X1726247Y-90761904D01*
X1726247Y-90761904D02*
X1583390Y-90761904D01*
X1583390Y-90761904D02*
X1392914Y-90714285D01*
X1392914Y-90714285D02*
X1297676Y-90666666D01*
X1297676Y-90666666D02*
X1202438Y-90571428D01*
X1202438Y-90571428D02*
X1154819Y-90428571D01*
X1154819Y-90428571D02*
X1154819Y-90333333D01*
X1154819Y-90333333D02*
X1202438Y-90190476D01*
X1202438Y-90190476D02*
X1250057Y-90142857D01*
X2154819Y-89190476D02*
X2154819Y-89761904D01*
X2154819Y-89476190D02*
X1154819Y-89476190D01*
X1154819Y-89476190D02*
X1297676Y-89571428D01*
X1297676Y-89571428D02*
X1392914Y-89666666D01*
X1392914Y-89666666D02*
X1440533Y-89761904D01*
X1250057Y-88809523D02*
X1202438Y-88761904D01*
X1202438Y-88761904D02*
X1154819Y-88666666D01*
X1154819Y-88666666D02*
X1154819Y-88428571D01*
X1154819Y-88428571D02*
X1202438Y-88333333D01*
X1202438Y-88333333D02*
X1250057Y-88285714D01*
X1250057Y-88285714D02*
X1345295Y-88238095D01*
X1345295Y-88238095D02*
X1440533Y-88238095D01*
X1440533Y-88238095D02*
X1583390Y-88285714D01*
X1583390Y-88285714D02*
X2154819Y-88857142D01*
X2154819Y-88857142D02*
X2154819Y-88238095D01*
D13*
%TO.C,R14*%
X23446359Y-80870000D02*
X23753641Y-80870000D01*
X23446359Y-81630000D02*
X23753641Y-81630000D01*
%TO.C,U3*%
X23015000Y-87450000D02*
X23015000Y-85250000D01*
X23015000Y-87450000D02*
X23015000Y-89650000D01*
X28485000Y-87450000D02*
X28485000Y-83800000D01*
X28485000Y-87450000D02*
X28485000Y-89650000D01*
D14*
%TO.C,J13*%
X9250000Y-63000000D02*
G75*
G02*
X2750000Y-63000000I-3250000J0D01*
G01*
X2750000Y-63000000D02*
G75*
G02*
X9250000Y-63000000I3250000J0D01*
G01*
X9250000Y-94000000D02*
G75*
G02*
X2750000Y-94000000I-3250000J0D01*
G01*
X2750000Y-94000000D02*
G75*
G02*
X9250000Y-94000000I3250000J0D01*
G01*
X40250000Y-63000000D02*
G75*
G02*
X33750000Y-63000000I-3250000J0D01*
G01*
X33750000Y-63000000D02*
G75*
G02*
X40250000Y-63000000I3250000J0D01*
G01*
X40250385Y-94000000D02*
G75*
G02*
X33749615Y-94000000I-3250385J0D01*
G01*
X33749615Y-94000000D02*
G75*
G02*
X40250385Y-94000000I3250385J0D01*
G01*
D13*
%TO.C,R4*%
X7046359Y-72670000D02*
X7353641Y-72670000D01*
X7046359Y-73430000D02*
X7353641Y-73430000D01*
%TO.C,C1*%
X32392164Y-62340000D02*
X32607836Y-62340000D01*
X32392164Y-63060000D02*
X32607836Y-63060000D01*
%TO.C,R5*%
X4896359Y-78570000D02*
X5203641Y-78570000D01*
X4896359Y-79330000D02*
X5203641Y-79330000D01*
%TO.C,R7*%
X31722659Y-73660060D02*
X31939940Y-73877341D01*
X32260060Y-73122659D02*
X32477341Y-73339940D01*
%TO.C,R13*%
X22890000Y-95127064D02*
X22890000Y-93672936D01*
X24710000Y-95127064D02*
X24710000Y-93672936D01*
%TO.C,J2*%
X8775000Y-57670000D02*
X34265000Y-57670000D01*
X8775000Y-60330000D02*
X8775000Y-57670000D01*
X8775000Y-60330000D02*
X34265000Y-60330000D01*
X34265000Y-60330000D02*
X34265000Y-57670000D01*
%TO.C,J3*%
X31050000Y-88220000D02*
X31050000Y-80380000D01*
X36350000Y-80380000D02*
X31050000Y-80380000D01*
X36350000Y-88220000D02*
X31050000Y-88220000D01*
X36350000Y-88220000D02*
X36350000Y-80380000D01*
%TO.C,C6*%
X4890000Y-81159419D02*
X4890000Y-81440581D01*
X5910000Y-81159419D02*
X5910000Y-81440581D01*
%TO.C,R2*%
X16553641Y-63070000D02*
X16246359Y-63070000D01*
X16553641Y-63830000D02*
X16246359Y-63830000D01*
%TO.C,J1*%
X10440000Y-90639500D02*
X10440000Y-100560500D01*
X10440000Y-90639500D02*
X20560000Y-90639500D01*
X10440000Y-93599500D02*
X20560000Y-93599500D01*
X10440000Y-98500500D02*
X20560000Y-98500500D01*
X10440000Y-100000500D02*
X20560000Y-100000500D01*
X10440000Y-100560500D02*
X20560000Y-100560500D01*
X16773000Y-96923500D02*
X16726000Y-96969500D01*
X16966000Y-97139500D02*
X16931000Y-97174500D01*
X19070000Y-94625500D02*
X19035000Y-94661500D01*
X19275000Y-94831500D02*
X19228000Y-94877500D01*
X20560000Y-90639500D02*
X20560000Y-100560500D01*
X11464573Y-96583542D02*
G75*
G02*
X11465000Y-95216500I1535420J683041D01*
G01*
X12316958Y-94365073D02*
G75*
G02*
X13684000Y-94365500I683041J-1535420D01*
G01*
X13028805Y-97580753D02*
G75*
G02*
X12316000Y-97435500I-28806J1680254D01*
G01*
X13683318Y-97435256D02*
G75*
G02*
X13000000Y-97580500I-683318J1534756D01*
G01*
X14535427Y-95217458D02*
G75*
G02*
X14535000Y-96584500I-1535427J-683042D01*
G01*
X19680000Y-95900500D02*
G75*
G02*
X16320000Y-95900500I-1680000J0D01*
G01*
X16320000Y-95900500D02*
G75*
G02*
X19680000Y-95900500I1680000J0D01*
G01*
%TO.C,C19*%
X19352500Y-85342164D02*
X19352500Y-85557836D01*
X20072500Y-85342164D02*
X20072500Y-85557836D01*
%TO.C,R21*%
X12803641Y-63070000D02*
X12496359Y-63070000D01*
X12803641Y-63830000D02*
X12496359Y-63830000D01*
%TO.C,SW1*%
X34300000Y-67000000D02*
X34300000Y-67120000D01*
X34300000Y-68130000D02*
X34300000Y-69270000D01*
X34300000Y-70280000D02*
X34300000Y-70400000D01*
X34300000Y-70400000D02*
X38700000Y-70400000D01*
X38700000Y-67000000D02*
X34300000Y-67000000D01*
X38700000Y-67120000D02*
X38700000Y-67000000D01*
X38700000Y-69270000D02*
X38700000Y-68130000D01*
X38700000Y-70400000D02*
X38700000Y-70280000D01*
%TO.C,D1*%
X14902500Y-88050000D02*
X14902500Y-90050000D01*
X14902500Y-88050000D02*
X18762500Y-88050000D01*
X14902500Y-90050000D02*
X18762500Y-90050000D01*
%TO.C,Q2*%
X6180000Y-70350000D02*
X6180001Y-69550000D01*
X6180000Y-70350000D02*
X6180001Y-72150000D01*
X9300002Y-70350000D02*
X9300001Y-69550000D01*
X9300002Y-70350000D02*
X9300001Y-71150000D01*
%TO.C,Q5*%
X4240001Y-75920000D02*
X4240000Y-77330000D01*
X4900001Y-77330000D02*
X4240000Y-77330000D01*
X6560000Y-77330000D02*
X5899999Y-77330000D01*
X6560000Y-77330000D02*
X6560000Y-75300000D01*
%TO.C,R6*%
X4743642Y-67220000D02*
X4436360Y-67220000D01*
X4743642Y-67980000D02*
X4436360Y-67980000D01*
%TO.C,C7*%
X13984419Y-71390000D02*
X14265581Y-71390000D01*
X13984419Y-72410000D02*
X14265581Y-72410000D01*
D14*
%TO.C,J10*%
X36600000Y-76100000D02*
G75*
G02*
X34600000Y-76100000I-1000000J0D01*
G01*
X34600000Y-76100000D02*
G75*
G02*
X36600000Y-76100000I1000000J0D01*
G01*
D13*
%TO.C,J7*%
X10950000Y-74790000D02*
X10950000Y-82410000D01*
X10950000Y-74790000D02*
X13490000Y-74790000D01*
X10950000Y-82410000D02*
X13490000Y-82410000D01*
X13490000Y-74790000D02*
X13490000Y-82410000D01*
%TO.C,Q3*%
X10389999Y-66200000D02*
X10390000Y-65400000D01*
X10389999Y-66200000D02*
X10390000Y-68000000D01*
X13510001Y-66200000D02*
X13510000Y-65400000D01*
X13510001Y-66200000D02*
X13510000Y-67000000D01*
%TO.C,F1*%
X31290000Y-90597936D02*
X31290000Y-91802064D01*
X33110000Y-90597936D02*
X33110000Y-91802064D01*
%TO.C,R16*%
X3070000Y-76003641D02*
X3070000Y-75696359D01*
X3830000Y-76003641D02*
X3830000Y-75696359D01*
D14*
%TO.C,J11*%
X36600000Y-78500000D02*
G75*
G02*
X34600000Y-78500000I-1000000J0D01*
G01*
X34600000Y-78500000D02*
G75*
G02*
X36600000Y-78500000I1000000J0D01*
G01*
D13*
%TO.C,J12*%
X21820000Y-97838000D02*
X22328000Y-97330000D01*
X21820000Y-99362000D02*
X21820000Y-97838000D01*
X21820000Y-99362000D02*
X21820000Y-97838000D01*
X22328000Y-97330000D02*
X23852000Y-97330000D01*
X22328000Y-99870000D02*
X21820000Y-99362000D01*
X23852000Y-97330000D02*
X24360000Y-97838000D01*
X23852000Y-99870000D02*
X22328000Y-99870000D01*
X23852000Y-99870000D02*
X24360000Y-99362000D01*
X24360000Y-97838000D02*
X24868000Y-97330000D01*
X24360000Y-99362000D02*
X24868000Y-99870000D01*
X24868000Y-97330000D02*
X26392000Y-97330000D01*
X26392000Y-97330000D02*
X26900000Y-97838000D01*
X26392000Y-99870000D02*
X24868000Y-99870000D01*
X26392000Y-99870000D02*
X26900000Y-99362000D01*
X26900000Y-97838000D02*
X27408000Y-97330000D01*
X26900000Y-99362000D02*
X27408000Y-99870000D01*
X27408000Y-97330000D02*
X28932000Y-97330000D01*
X28932000Y-97330000D02*
X29440000Y-97838000D01*
X28932000Y-99870000D02*
X27408000Y-99870000D01*
X28932000Y-99870000D02*
X29440000Y-99362000D01*
X29440000Y-97838000D02*
X29948000Y-97330000D01*
X29440000Y-99362000D02*
X29948000Y-99870000D01*
X29948000Y-97330000D02*
X31472000Y-97330000D01*
X31472000Y-99870000D02*
X29948000Y-99870000D01*
X31980000Y-97838000D02*
X31472000Y-97330000D01*
X31980000Y-99362000D02*
X31472000Y-99870000D01*
X31980000Y-99362000D02*
X31980000Y-97838000D01*
%TO.C,C13*%
X6590000Y-81159419D02*
X6590000Y-81440581D01*
X7610000Y-81159419D02*
X7610000Y-81440581D01*
%TO.C,C5*%
X18060000Y-65107836D02*
X18060000Y-64892164D01*
X18780000Y-65107836D02*
X18780000Y-64892164D01*
%TO.C,J6*%
X16030000Y-74790000D02*
X16030000Y-82410000D01*
X16030000Y-74790000D02*
X18570000Y-74790000D01*
X16030000Y-82410000D02*
X18570000Y-82410000D01*
X18570000Y-74790000D02*
X18570000Y-82410000D01*
%TO.C,U4*%
X20294689Y-67000000D02*
X20612887Y-66681802D01*
X20612887Y-67318198D02*
X20294689Y-67000000D01*
X25081802Y-62212887D02*
X24169634Y-61300719D01*
X25081802Y-71787113D02*
X25400000Y-72105311D01*
X25400000Y-61894689D02*
X25081802Y-62212887D01*
X25400000Y-72105311D02*
X25718198Y-71787113D01*
X25718198Y-62212887D02*
X25400000Y-61894689D01*
X30187113Y-66681802D02*
X30505311Y-67000000D01*
X30505311Y-67000000D02*
X30187113Y-67318198D01*
%TO.C,U1*%
X16862500Y-84390000D02*
X15062500Y-84390000D01*
X16862500Y-84390000D02*
X17662500Y-84390000D01*
X16862500Y-87510000D02*
X16062500Y-87510000D01*
X16862500Y-87510000D02*
X17662500Y-87510000D01*
%TO.C,R20*%
X11196359Y-68520000D02*
X11503641Y-68520000D01*
X11196359Y-69280000D02*
X11503641Y-69280000D01*
%TO.C,Q1*%
X2430000Y-70350000D02*
X2430001Y-69550000D01*
X2430000Y-70350000D02*
X2430001Y-72150000D01*
X5550002Y-70350000D02*
X5550001Y-69550000D01*
X5550002Y-70350000D02*
X5550001Y-71150000D01*
%TO.C,R1*%
X3236360Y-72670000D02*
X3543642Y-72670000D01*
X3236360Y-73430000D02*
X3543642Y-73430000D01*
%TO.C,R15*%
X28053641Y-80870000D02*
X27746359Y-80870000D01*
X28053641Y-81630000D02*
X27746359Y-81630000D01*
%TO.C,C3*%
X20769190Y-71578307D02*
X20921693Y-71730810D01*
X21278307Y-71069190D02*
X21430810Y-71221693D01*
%TO.C,L2*%
X19257221Y-62590000D02*
X19582779Y-62590000D01*
X19257221Y-63610000D02*
X19582779Y-63610000D01*
%TO.C,R12*%
X26790000Y-95127064D02*
X26790000Y-93672936D01*
X28610000Y-95127064D02*
X28610000Y-93672936D01*
%TO.C,L1*%
X37324273Y-73345522D02*
X37554478Y-73575727D01*
X38045522Y-72624273D02*
X38275727Y-72854478D01*
%TO.C,C14*%
X23707836Y-82090000D02*
X23492164Y-82090000D01*
X23707836Y-82810000D02*
X23492164Y-82810000D01*
%TO.C,C4*%
X19007836Y-61240000D02*
X18792164Y-61240000D01*
X19007836Y-61960000D02*
X18792164Y-61960000D01*
%TO.C,Q4*%
X14139999Y-66200000D02*
X14140000Y-65400000D01*
X14139999Y-66200000D02*
X14140000Y-68000000D01*
X17260001Y-66200000D02*
X17260000Y-65400000D01*
X17260001Y-66200000D02*
X17260000Y-67000000D01*
%TO.C,J9*%
X37750000Y-78200000D02*
X37750000Y-77600000D01*
X38050000Y-77900000D02*
X37750000Y-77600000D01*
X38050000Y-77900000D02*
X37750000Y-78200000D01*
X38280000Y-75330000D02*
X40350000Y-75330000D01*
X38280000Y-76200000D02*
X38280000Y-75330000D01*
X38280000Y-83070000D02*
X38280000Y-82200000D01*
X38280000Y-83070000D02*
X40350000Y-83070000D01*
X42750000Y-75330000D02*
X43000000Y-75330000D01*
X42750000Y-83070000D02*
X43000000Y-83070000D01*
%TO.C,R8*%
X32622659Y-72760060D02*
X32839940Y-72977341D01*
X33160060Y-72222659D02*
X33377341Y-72439940D01*
%TO.C,C15*%
X27792164Y-82090000D02*
X28007836Y-82090000D01*
X27792164Y-82810000D02*
X28007836Y-82810000D01*
%TO.C,C2*%
X32392164Y-67040000D02*
X32607836Y-67040000D01*
X32392164Y-67760000D02*
X32607836Y-67760000D01*
%TO.C,C9*%
X13740000Y-86507836D02*
X13740000Y-86292164D01*
X14460000Y-86507836D02*
X14460000Y-86292164D01*
%TO.C,J8*%
X8410000Y-74790000D02*
X8410000Y-82410000D01*
X8410000Y-74790000D02*
X10950000Y-74790000D01*
X8410000Y-82410000D02*
X10950000Y-82410000D01*
X10950000Y-74790000D02*
X10950000Y-82410000D01*
%TO.C,R11*%
X7036361Y-67207500D02*
X7343643Y-67207500D01*
X7036361Y-67967500D02*
X7343643Y-67967500D01*
%TO.C,J5*%
X13490000Y-74790000D02*
X13490000Y-82410000D01*
X13490000Y-74790000D02*
X16030000Y-74790000D01*
X13490000Y-82410000D02*
X16030000Y-82410000D01*
X16030000Y-74790000D02*
X16030000Y-82410000D01*
%TO.C,LED1*%
X1940000Y-77700000D02*
X1940000Y-80384999D01*
X1940000Y-80384999D02*
X3860000Y-80384999D01*
X3860000Y-80384999D02*
X3860000Y-77700000D01*
%TO.C,C8*%
X13984419Y-72990000D02*
X14265581Y-72990000D01*
X13984419Y-74010000D02*
X14265581Y-74010000D01*
%TO.C,R3*%
X14946359Y-68520000D02*
X15253641Y-68520000D01*
X14946359Y-69280000D02*
X15253641Y-69280000D01*
%TO.C,Y1*%
X16025000Y-71299999D02*
X16025000Y-73700001D01*
X16025000Y-73700001D02*
X17625000Y-73700001D01*
X17625000Y-73700001D02*
X17625000Y-71299999D01*
%TO.C,C11*%
X32392164Y-63440000D02*
X32607836Y-63440000D01*
X32392164Y-64160000D02*
X32607836Y-64160000D01*
%TO.C,C12*%
X1762500Y-85052500D02*
X2550000Y-85052500D01*
X2156250Y-84658750D02*
X2156250Y-85446250D01*
X2790000Y-84554437D02*
X2790000Y-85840000D01*
X2790000Y-84554437D02*
X3854437Y-83490000D01*
X2790000Y-89245563D02*
X2790000Y-87960000D01*
X2790000Y-89245563D02*
X3854437Y-90310000D01*
X3854437Y-83490000D02*
X9610000Y-83490000D01*
X3854437Y-90310000D02*
X9610000Y-90310000D01*
X9610000Y-83490000D02*
X9610000Y-85840000D01*
X9610000Y-90310000D02*
X9610000Y-87960000D01*
%TD*%
%LPC*%
D15*
%TO.C,R14*%
X23090000Y-81250000D03*
X24110000Y-81250000D03*
%TD*%
D16*
%TO.C,U3*%
X28025000Y-84575000D03*
X27375000Y-84575000D03*
X26725000Y-84575000D03*
X26075000Y-84575000D03*
X25425000Y-84575000D03*
X24775000Y-84575000D03*
X24125000Y-84575000D03*
X23475000Y-84575000D03*
X23475000Y-90325000D03*
X24125000Y-90325000D03*
X24775000Y-90325000D03*
X25425000Y-90325000D03*
X26075000Y-90325000D03*
X26725000Y-90325000D03*
X27375000Y-90325000D03*
X28025000Y-90325000D03*
D17*
X25750000Y-87450000D03*
%TD*%
D18*
%TO.C,J13*%
X6000000Y-63000000D03*
X6000000Y-94000000D03*
X37000000Y-63000000D03*
X37000000Y-94000000D03*
%TD*%
D15*
%TO.C,R4*%
X6690000Y-73050000D03*
X7710000Y-73050000D03*
%TD*%
D19*
%TO.C,C1*%
X32020000Y-62700000D03*
X32980000Y-62700000D03*
%TD*%
D15*
%TO.C,R5*%
X4540000Y-78950000D03*
X5560000Y-78950000D03*
%TD*%
D20*
%TO.C,R7*%
X31739376Y-73139376D03*
X32460624Y-73860624D03*
%TD*%
D21*
%TO.C,R13*%
X23800000Y-95862500D03*
X23800000Y-92937500D03*
%TD*%
D22*
%TO.C,J2*%
X10075000Y-59000000D03*
D23*
X12615000Y-59000000D03*
X15155000Y-59000000D03*
X17695000Y-59000000D03*
X20235000Y-59000000D03*
X22775000Y-59000000D03*
X25315000Y-59000000D03*
X27855000Y-59000000D03*
X30395000Y-59000000D03*
X32935000Y-59000000D03*
%TD*%
D22*
%TO.C,J3*%
X34970000Y-86840000D03*
X32430000Y-86840000D03*
X34970000Y-84300000D03*
X32430000Y-84300000D03*
X34970000Y-81760000D03*
X32430000Y-81760000D03*
%TD*%
D24*
%TO.C,C6*%
X5400000Y-80525000D03*
X5400000Y-82075000D03*
%TD*%
D25*
%TO.C,R2*%
X16909999Y-63450000D03*
X15890001Y-63450000D03*
%TD*%
D26*
%TO.C,J1*%
X13000000Y-95900500D03*
D27*
X18000000Y-95900500D03*
%TD*%
D28*
%TO.C,C19*%
X19712500Y-84970000D03*
X19712500Y-85930000D03*
%TD*%
D25*
%TO.C,R21*%
X13159999Y-63450000D03*
X12140001Y-63450000D03*
%TD*%
D29*
%TO.C,SW1*%
X34425000Y-67625000D03*
X38575000Y-67625000D03*
X34425000Y-69775000D03*
X38575000Y-69775000D03*
%TD*%
D30*
%TO.C,D1*%
X15712500Y-89050000D03*
X18512500Y-89050000D03*
%TD*%
D31*
%TO.C,Q2*%
X6790002Y-71487500D03*
X8690000Y-71487500D03*
X7740001Y-69212500D03*
%TD*%
D32*
%TO.C,Q5*%
X6050000Y-75600000D03*
X4750000Y-75600000D03*
X5400000Y-77600000D03*
%TD*%
D25*
%TO.C,R6*%
X5100000Y-67600000D03*
X4080002Y-67600000D03*
%TD*%
D33*
%TO.C,C7*%
X13350000Y-71900000D03*
X14900000Y-71900000D03*
%TD*%
D22*
%TO.C,J10*%
X35600000Y-76100000D03*
%TD*%
%TO.C,J7*%
X12220000Y-76060000D03*
D23*
X12220000Y-78600000D03*
X12220000Y-81140000D03*
%TD*%
D31*
%TO.C,Q3*%
X11000001Y-67337500D03*
X12899999Y-67337500D03*
X11950000Y-65062500D03*
%TD*%
D34*
%TO.C,F1*%
X32200000Y-89800001D03*
X32200000Y-92599999D03*
%TD*%
D35*
%TO.C,R16*%
X3450000Y-76359999D03*
X3450000Y-75340001D03*
%TD*%
D22*
%TO.C,J11*%
X35600000Y-78500000D03*
%TD*%
%TO.C,J12*%
X23090000Y-98600000D03*
D23*
X25630000Y-98600000D03*
X28170000Y-98600000D03*
X30710000Y-98600000D03*
%TD*%
D24*
%TO.C,C13*%
X7100000Y-80525000D03*
X7100000Y-82075000D03*
%TD*%
D36*
%TO.C,C5*%
X18420000Y-65480000D03*
X18420000Y-64520000D03*
%TD*%
D22*
%TO.C,J6*%
X17300000Y-76060000D03*
D23*
X17300000Y-78600000D03*
X17300000Y-81140000D03*
%TD*%
D37*
%TO.C,U4*%
X24401212Y-62112124D03*
X24047658Y-62465678D03*
X23694105Y-62819231D03*
X23340551Y-63172785D03*
X22986998Y-63526338D03*
X22633445Y-63879891D03*
X22279891Y-64233445D03*
X21926338Y-64586998D03*
X21572785Y-64940551D03*
X21219231Y-65294105D03*
X20865678Y-65647658D03*
X20512124Y-66001212D03*
D38*
X20512124Y-67998788D03*
X20865678Y-68352342D03*
X21219231Y-68705895D03*
X21572785Y-69059449D03*
X21926338Y-69413002D03*
X22279891Y-69766555D03*
X22633445Y-70120109D03*
X22986998Y-70473662D03*
X23340551Y-70827215D03*
X23694105Y-71180769D03*
X24047658Y-71534322D03*
X24401212Y-71887876D03*
D37*
X26398788Y-71887876D03*
X26752342Y-71534322D03*
X27105895Y-71180769D03*
X27459449Y-70827215D03*
X27813002Y-70473662D03*
X28166555Y-70120109D03*
X28520109Y-69766555D03*
X28873662Y-69413002D03*
X29227215Y-69059449D03*
X29580769Y-68705895D03*
X29934322Y-68352342D03*
X30287876Y-67998788D03*
D38*
X30287876Y-66001212D03*
X29934322Y-65647658D03*
X29580769Y-65294105D03*
X29227215Y-64940551D03*
X28873662Y-64586998D03*
X28520109Y-64233445D03*
X28166555Y-63879891D03*
X27813002Y-63526338D03*
X27459449Y-63172785D03*
X27105895Y-62819231D03*
X26752342Y-62465678D03*
X26398788Y-62112124D03*
%TD*%
D39*
%TO.C,U1*%
X15725000Y-85000000D03*
X15725000Y-85950000D03*
X15725000Y-86900000D03*
X18000000Y-86900000D03*
X18000000Y-85000000D03*
%TD*%
D15*
%TO.C,R20*%
X10840000Y-68900000D03*
X11860000Y-68900000D03*
%TD*%
D31*
%TO.C,Q1*%
X3040002Y-71487500D03*
X4940000Y-71487500D03*
X3990001Y-69212500D03*
%TD*%
D15*
%TO.C,R1*%
X2880001Y-73050000D03*
X3900001Y-73050000D03*
%TD*%
D25*
%TO.C,R15*%
X28409999Y-81250000D03*
X27390001Y-81250000D03*
%TD*%
D40*
%TO.C,C3*%
X20760589Y-71060589D03*
X21439411Y-71739411D03*
%TD*%
D41*
%TO.C,L2*%
X18632500Y-63100000D03*
X20207500Y-63100000D03*
%TD*%
D21*
%TO.C,R12*%
X27700000Y-95862500D03*
X27700000Y-92937500D03*
%TD*%
D42*
%TO.C,L1*%
X37243153Y-72543153D03*
X38356847Y-73656847D03*
%TD*%
D43*
%TO.C,C14*%
X24080000Y-82450000D03*
X23120000Y-82450000D03*
%TD*%
%TO.C,C4*%
X19380000Y-61600000D03*
X18420000Y-61600000D03*
%TD*%
D31*
%TO.C,Q4*%
X14750001Y-67337500D03*
X16649999Y-67337500D03*
X15700000Y-65062500D03*
%TD*%
D44*
%TO.C,J9*%
X38875000Y-77900000D03*
X38875000Y-78550000D03*
X38875000Y-79200000D03*
X38875000Y-79850000D03*
X38875000Y-80500000D03*
D45*
X41550000Y-83375000D03*
D46*
X41550000Y-82937500D03*
D47*
X38550000Y-81425000D03*
D48*
X41550000Y-79200000D03*
D47*
X38550000Y-76975000D03*
D46*
X41550000Y-75462500D03*
D45*
X41550000Y-75025000D03*
%TD*%
D20*
%TO.C,R8*%
X32639376Y-72239376D03*
X33360624Y-72960624D03*
%TD*%
D19*
%TO.C,C15*%
X27420000Y-82450000D03*
X28380000Y-82450000D03*
%TD*%
%TO.C,C2*%
X32020000Y-67400000D03*
X32980000Y-67400000D03*
%TD*%
D36*
%TO.C,C9*%
X14100000Y-86880000D03*
X14100000Y-85920000D03*
%TD*%
D22*
%TO.C,J8*%
X9680000Y-76060000D03*
D23*
X9680000Y-78600000D03*
X9680000Y-81140000D03*
%TD*%
D15*
%TO.C,R11*%
X6680003Y-67587500D03*
X7700001Y-67587500D03*
%TD*%
D22*
%TO.C,J5*%
X14760000Y-76060000D03*
D23*
X14760000Y-78600000D03*
X14760000Y-81140000D03*
%TD*%
D49*
%TO.C,LED1*%
X2900000Y-79637501D03*
X2900000Y-77762499D03*
%TD*%
D33*
%TO.C,C8*%
X13350000Y-73500000D03*
X14900000Y-73500000D03*
%TD*%
D15*
%TO.C,R3*%
X14590000Y-68900000D03*
X15610000Y-68900000D03*
%TD*%
D50*
%TO.C,Y1*%
X16825000Y-73200000D03*
X16825000Y-71800000D03*
%TD*%
D19*
%TO.C,C11*%
X32020000Y-63800000D03*
X32980000Y-63800000D03*
%TD*%
D51*
%TO.C,C12*%
X3500000Y-86900000D03*
X8900000Y-86900000D03*
%TD*%
D52*
%TO.C,J4*%
X40430000Y-67660000D03*
D53*
X41700001Y-67660000D03*
X40430000Y-68930001D03*
X41700000Y-68930000D03*
X40430000Y-70200000D03*
X41700000Y-70200000D03*
X40430000Y-71470000D03*
X41700000Y-71470000D03*
X40430000Y-72739999D03*
X41700000Y-72740000D03*
%TD*%
%LPD*%
M02*
