M48
; DRILL file {KiCad 9.0.7} date 2026-03-13T13:39:34-0400
; FORMAT={-:-/ absolute / metric / decimal}
; #@! TF.CreationDate,2026-03-13T13:39:34-04:00
; #@! TF.GenerationSoftware,Kicad,Pcbnew,9.0.7
; #@! TF.FileFunction,Plated,1,2,PTH
FMAT,2
METRIC
; #@! TA.AperFunction,Plated,PTH,ViaDrill
T1C0.300
; #@! TA.AperFunction,Plated,PTH,ComponentDrill
T2C0.300
; #@! TA.AperFunction,Plated,PTH,ViaDrill
T3C0.400
; #@! TA.AperFunction,Plated,PTH,ComponentDrill
T4C0.600
; #@! TA.AperFunction,Plated,PTH,ComponentDrill
T5C0.650
; #@! TA.AperFunction,Plated,PTH,ComponentDrill
T6C0.700
; #@! TA.AperFunction,Plated,PTH,ComponentDrill
T7C1.000
; #@! TA.AperFunction,Plated,PTH,ComponentDrill
T8C1.300
%
G90
G05
T1
X2.6Y-65.6
X2.8Y-68.9
X4.0Y-71.5
X5.9Y-71.5
X6.1Y-74.3
X6.2Y-84.8
X6.721Y-66.764
X7.8Y-71.6
X8.7Y-97.3
X9.9Y-68.9
X11.6Y-73.5
X11.9Y-67.4
X13.2Y-64.6
X13.8Y-67.4
X14.9Y-61.7
X15.8Y-67.3
X16.4Y-68.9
X16.75Y-70.195
X16.9Y-64.7
X17.7Y-63.2
X17.7Y-65.9
X18.1Y-72.7
X18.7Y-71.2
X19.0Y-60.7
X19.3Y-65.3
X19.492Y-77.008
X19.5Y-77.9
X19.8Y-64.4
X19.8Y-67.8
X19.8Y-89.1
X19.9Y-87.5
X20.4Y-72.4
X20.8Y-64.1
X20.95Y-73.15
X21.5Y-77.3
X21.85Y-73.15
X22.1Y-78.1
X22.6Y-65.85
X22.7Y-90.4
X23.008Y-74.292
X23.042Y-61.442
X23.3Y-67.9
X23.4Y-78.475
X23.8Y-65.1
X23.9Y-77.8
X24.0Y-69.5
X24.0Y-73.5
X24.711Y-67.489
X24.775Y-80.2
X25.0Y-66.0
X25.3Y-61.325
X25.3Y-63.5
X25.3Y-64.3
X25.4Y-83.1
X25.4Y-93.0
X26.1Y-64.925
X26.127Y-82.4
X26.127Y-92.0
X26.2Y-69.175
X26.7Y-69.8
X26.752Y-76.0
X26.752Y-80.2
X27.246Y-66.954
X27.6Y-78.5
X28.2Y-74.9
X28.2Y-77.1
X29.0Y-91.3
X29.8Y-63.525
X31.1Y-69.175
X31.6Y-66.4
X31.777Y-71.322
X32.0Y-68.725
X32.9Y-64.7
X33.2Y-69.1
X33.3Y-96.6
X35.9Y-59.1
X36.3Y-89.8
X36.5Y-69.3
X36.9Y-79.2
X37.0Y-81.2
X37.351Y-77.797
X37.8Y-79.2
X38.4Y-83.6
X39.6Y-65.975
X40.1Y-77.9
X41.1Y-85.2
T2
X24.55Y-86.25
X24.55Y-88.65
X26.95Y-86.25
X26.95Y-88.65
T3
X11.7Y-86.9
X18.1Y-91.7
X22.2Y-92.5
X29.4Y-93.2
X32.2Y-91.2
X32.43Y-78.7
T6
X14.708Y-98.3
X16.232Y-98.3
X40.43Y-67.66
X40.43Y-68.93
X40.43Y-70.2
X40.43Y-71.47
X40.43Y-72.74
X41.7Y-68.93
X41.7Y-70.2
X41.7Y-71.47
X41.7Y-72.74
X41.7Y-67.66
T7
X9.68Y-76.06
X9.68Y-78.6
X9.68Y-81.14
X10.075Y-59.0
X12.22Y-76.06
X12.22Y-78.6
X12.22Y-81.14
X12.615Y-59.0
X14.76Y-76.06
X14.76Y-78.6
X14.76Y-81.14
X15.155Y-59.0
X17.3Y-76.06
X17.3Y-78.6
X17.3Y-81.14
X17.695Y-59.0
X20.235Y-59.0
X22.775Y-59.0
X23.09Y-98.6
X25.315Y-59.0
X25.63Y-98.6
X27.855Y-59.0
X28.17Y-98.6
X30.395Y-59.0
X30.71Y-98.6
X32.43Y-81.76
X32.43Y-84.3
X32.43Y-86.84
X32.935Y-59.0
X34.97Y-81.76
X34.97Y-84.3
X34.97Y-86.84
X35.6Y-76.1
X35.6Y-78.5
T8
X13.0Y-95.9
X18.0Y-95.9
T4
X41.2Y-75.025G85X41.9Y-75.025
G05
X41.2Y-83.375G85X41.9Y-83.375
G05
T5
X38.45Y-76.975G85X38.65Y-76.975
G05
X38.45Y-81.425G85X38.65Y-81.425
G05
M30
